<svg xmlns="http://www.w3.org/2000/svg" width="281.6" height="281.6" viewBox="0 0 70.4 70.4">
<defs><linearGradient id="lg1" gradientUnits="objectBoundingBox" x1="0" y1="0" x2="0" y2="1"><stop offset="0" stop-color="#5b6b3a" stop-opacity="1"/><stop offset="1" stop-color="#39432a" stop-opacity="1"/></linearGradient><radialGradient id="rg2" gradientUnits="objectBoundingBox" cx="0.5" cy="0.5" r="0.5"><stop offset="0" stop-color="#b08cff" stop-opacity="0.7"/><stop offset="0.35" stop-color="#b08cff" stop-opacity="0.35"/><stop offset="1" stop-color="#b08cff" stop-opacity="0"/></radialGradient><radialGradient id="rg3" gradientUnits="objectBoundingBox" cx="0.35" cy="0.3" r="0.5"><stop offset="0" stop-color="#86985a" stop-opacity="1"/><stop offset="0.6" stop-color="#5b6b3a" stop-opacity="1"/><stop offset="1" stop-color="#39432a" stop-opacity="1"/></radialGradient></defs>
<g transform="scale(1.1)"><polyline points="29.5,40 27.5,49 27,56" fill="none" stroke="#120c10" stroke-width="5.4" stroke-linecap="round" stroke-linejoin="round"/><polyline points="29.5,40 27.5,49 27,56" fill="none" stroke="#39432a" stroke-width="3.2" stroke-linecap="round" stroke-linejoin="round"/><polyline points="34.5,40 36.5,49 37,56" fill="none" stroke="#120c10" stroke-width="5.4" stroke-linecap="round" stroke-linejoin="round"/><polyline points="34.5,40 36.5,49 37,56" fill="none" stroke="#39432a" stroke-width="3.2" stroke-linecap="round" stroke-linejoin="round"/><path d="M38,38 C38,39.5 37.7,41.2 37.2,42.5 C36.7,43.8 35.87,45.04 35,45.79 C34.13,46.54 33,47 32,47 C31,47 29.87,46.54 29,45.79 C28.13,45.04 27.3,43.8 26.8,42.5 C26.3,41.2 26,39.5 26,38 C26,36.5 26.3,34.8 26.8,33.5 C27.3,32.2 28.13,30.96 29,30.21 C29.87,29.46 31,29 32,29 C33,29 34.13,29.46 35,30.21 C35.87,30.96 36.7,32.2 37.2,33.5 C37.7,34.8 38,36.5 38,38 Z" fill="#120c10" stroke="#120c10" stroke-width="1.2" stroke-linejoin="round"/><path d="M38,38 C38,39.5 37.7,41.2 37.2,42.5 C36.7,43.8 35.87,45.04 35,45.79 C34.13,46.54 33,47 32,47 C31,47 29.87,46.54 29,45.79 C28.13,45.04 27.3,43.8 26.8,42.5 C26.3,41.2 26,39.5 26,38 C26,36.5 26.3,34.8 26.8,33.5 C27.3,32.2 28.13,30.96 29,30.21 C29.87,29.46 31,29 32,29 C33,29 34.13,29.46 35,30.21 C35.87,30.96 36.7,32.2 37.2,33.5 C37.7,34.8 38,36.5 38,38 Z" fill="url(#lg1)"/><circle cx="28" cy="35" r="2.2" fill="#4a5a2a" opacity="0.9"/><circle cx="35.5" cy="38" r="2.5" fill="#4a5a2a" opacity="0.9"/><circle cx="30" cy="42" r="2" fill="#4a5a2a" opacity="0.9"/><circle cx="36" cy="44" r="1.8" fill="#4a5a2a" opacity="0.9"/><circle cx="32" cy="33" r="1.6" fill="#4a5a2a" opacity="0.9"/><rect x="30.4" y="2.4" width="3.2" height="32.2" rx="0.8" fill="#0c1116"/><rect x="31" y="3" width="2" height="31" rx="0.6" fill="#262b31"/><rect x="31" y="3" width="0.7" height="31" fill="#ffffff" opacity="0.18"/><rect x="30.1" y="19" width="3.8" height="7" rx="1.6" fill="#2c343c" stroke="#0c1116" stroke-width="0.5"/><circle cx="32" cy="18.8" r="4" fill="url(#rg2)"/><circle cx="32" cy="18.8" r="1.5" fill="#b08cff"/><polyline points="32,10 28,13" fill="none" stroke="#120c10" stroke-width="3.1" stroke-linecap="round" stroke-linejoin="round"/><polyline points="32,10 28,13" fill="none" stroke="#262b31" stroke-width="0.9" stroke-linecap="round" stroke-linejoin="round"/><polyline points="32,10 36,13" fill="none" stroke="#120c10" stroke-width="3.1" stroke-linecap="round" stroke-linejoin="round"/><polyline points="32,10 36,13" fill="none" stroke="#262b31" stroke-width="0.9" stroke-linecap="round" stroke-linejoin="round"/><polyline points="27,33 30.5,27" fill="none" stroke="#120c10" stroke-width="4.6" stroke-linecap="round" stroke-linejoin="round"/><polyline points="27,33 30.5,27" fill="none" stroke="#5b6b3a" stroke-width="2.4" stroke-linecap="round" stroke-linejoin="round"/><polyline points="37,33 33.5,29" fill="none" stroke="#120c10" stroke-width="4.6" stroke-linecap="round" stroke-linejoin="round"/><polyline points="37,33 33.5,29" fill="none" stroke="#5b6b3a" stroke-width="2.4" stroke-linecap="round" stroke-linejoin="round"/><circle cx="32" cy="31" r="5" fill="url(#rg3)" stroke="#120c10" stroke-width="0.9"/><path d="M27.4,32.6 Q32.0,35.8 36.6,32.6" fill="none" stroke="#b08cff" stroke-width="1.6"/><circle cx="30.4" cy="29.4" r="1.2" fill="#ffffff" opacity="0.35"/></g>
</svg>
