<svg xmlns="http://www.w3.org/2000/svg" width="512" height="256" viewBox="0 0 256 128">
<defs><clipPath id="cp1"><rect x="0.5" y="0.5" width="127.0" height="127.0"/></clipPath><radialGradient id="rg2" gradientUnits="objectBoundingBox" cx="0.3" cy="0.25" r="0.85" fx="0.25" fy="0.2"><stop offset="0" stop-color="#ff7ab0" stop-opacity="1"/><stop offset="0.45" stop-color="#b52a64" stop-opacity="1"/><stop offset="1" stop-color="#4a0c28" stop-opacity="1"/></radialGradient><radialGradient id="rg3" gradientUnits="objectBoundingBox" cx="0.5" cy="0.5" r="0.5"><stop offset="0" stop-color="#ff9a5c" stop-opacity="0.55"/><stop offset="0.35" stop-color="#ff9a5c" stop-opacity="0.28"/><stop offset="1" stop-color="#ff9a5c" stop-opacity="0"/></radialGradient><radialGradient id="rg4" gradientUnits="objectBoundingBox" cx="0.4" cy="0.35" r="0.5"><stop offset="0" stop-color="#fff0c0" stop-opacity="1"/><stop offset="0.5" stop-color="#ffb070" stop-opacity="1"/><stop offset="1" stop-color="#c04030" stop-opacity="1"/></radialGradient><radialGradient id="rg5" gradientUnits="objectBoundingBox" cx="0.5" cy="0.5" r="0.5"><stop offset="0" stop-color="#ff9a5c" stop-opacity="0.55"/><stop offset="0.35" stop-color="#ff9a5c" stop-opacity="0.28"/><stop offset="1" stop-color="#ff9a5c" stop-opacity="0"/></radialGradient><radialGradient id="rg6" gradientUnits="objectBoundingBox" cx="0.4" cy="0.35" r="0.5"><stop offset="0" stop-color="#fff0c0" stop-opacity="1"/><stop offset="0.5" stop-color="#ffb070" stop-opacity="1"/><stop offset="1" stop-color="#c04030" stop-opacity="1"/></radialGradient><radialGradient id="rg7" gradientUnits="objectBoundingBox" cx="0.5" cy="0.5" r="0.5"><stop offset="0" stop-color="#ff9a5c" stop-opacity="0.55"/><stop offset="0.35" stop-color="#ff9a5c" stop-opacity="0.28"/><stop offset="1" stop-color="#ff9a5c" stop-opacity="0"/></radialGradient><radialGradient id="rg8" gradientUnits="objectBoundingBox" cx="0.4" cy="0.35" r="0.5"><stop offset="0" stop-color="#fff0c0" stop-opacity="1"/><stop offset="0.5" stop-color="#ffb070" stop-opacity="1"/><stop offset="1" stop-color="#c04030" stop-opacity="1"/></radialGradient><radialGradient id="rg9" gradientUnits="objectBoundingBox" cx="0.5" cy="0.5" r="0.5"><stop offset="0" stop-color="#ff9a5c" stop-opacity="0.55"/><stop offset="0.35" stop-color="#ff9a5c" stop-opacity="0.28"/><stop offset="1" stop-color="#ff9a5c" stop-opacity="0"/></radialGradient><radialGradient id="rg10" gradientUnits="objectBoundingBox" cx="0.4" cy="0.35" r="0.5"><stop offset="0" stop-color="#fff0c0" stop-opacity="1"/><stop offset="0.5" stop-color="#ffb070" stop-opacity="1"/><stop offset="1" stop-color="#c04030" stop-opacity="1"/></radialGradient><radialGradient id="rg11" gradientUnits="objectBoundingBox" cx="0.5" cy="0.5" r="0.5"><stop offset="0" stop-color="#ff9a5c" stop-opacity="0.55"/><stop offset="0.35" stop-color="#ff9a5c" stop-opacity="0.28"/><stop offset="1" stop-color="#ff9a5c" stop-opacity="0"/></radialGradient><radialGradient id="rg12" gradientUnits="objectBoundingBox" cx="0.4" cy="0.35" r="0.5"><stop offset="0" stop-color="#fff0c0" stop-opacity="1"/><stop offset="0.5" stop-color="#ffb070" stop-opacity="1"/><stop offset="1" stop-color="#c04030" stop-opacity="1"/></radialGradient><radialGradient id="rg13" gradientUnits="objectBoundingBox" cx="0.5" cy="0.5" r="0.5"><stop offset="0" stop-color="#ff9a5c" stop-opacity="0.55"/><stop offset="0.35" stop-color="#ff9a5c" stop-opacity="0.28"/><stop offset="1" stop-color="#ff9a5c" stop-opacity="0"/></radialGradient><radialGradient id="rg14" gradientUnits="objectBoundingBox" cx="0.4" cy="0.35" r="0.5"><stop offset="0" stop-color="#fff0c0" stop-opacity="1"/><stop offset="0.5" stop-color="#ffb070" stop-opacity="1"/><stop offset="1" stop-color="#c04030" stop-opacity="1"/></radialGradient><radialGradient id="rg15" gradientUnits="objectBoundingBox" cx="0.5" cy="0.5" r="0.5"><stop offset="0" stop-color="#ff9a5c" stop-opacity="0.55"/><stop offset="0.35" stop-color="#ff9a5c" stop-opacity="0.28"/><stop offset="1" stop-color="#ff9a5c" stop-opacity="0"/></radialGradient><radialGradient id="rg16" gradientUnits="objectBoundingBox" cx="0.4" cy="0.35" r="0.5"><stop offset="0" stop-color="#fff0c0" stop-opacity="1"/><stop offset="0.5" stop-color="#ffb070" stop-opacity="1"/><stop offset="1" stop-color="#c04030" stop-opacity="1"/></radialGradient><radialGradient id="rg17" gradientUnits="objectBoundingBox" cx="0.5" cy="0.5" r="0.5"><stop offset="0" stop-color="#ff9a5c" stop-opacity="0.55"/><stop offset="0.35" stop-color="#ff9a5c" stop-opacity="0.28"/><stop offset="1" stop-color="#ff9a5c" stop-opacity="0"/></radialGradient><radialGradient id="rg18" gradientUnits="objectBoundingBox" cx="0.4" cy="0.35" r="0.5"><stop offset="0" stop-color="#fff0c0" stop-opacity="1"/><stop offset="0.5" stop-color="#ffb070" stop-opacity="1"/><stop offset="1" stop-color="#c04030" stop-opacity="1"/></radialGradient><radialGradient id="rg19" gradientUnits="objectBoundingBox" cx="0.5" cy="0.5" r="0.5"><stop offset="0" stop-color="#ffffff" stop-opacity="0.35"/><stop offset="1" stop-color="#ffffff" stop-opacity="0"/></radialGradient><radialGradient id="rg20" gradientUnits="objectBoundingBox" cx="0.35" cy="0.3" r="0.85" fx="0.3" fy="0.25"><stop offset="0" stop-color="#ff7ab0" stop-opacity="1"/><stop offset="0.45" stop-color="#b52a64" stop-opacity="1"/><stop offset="1" stop-color="#4a0c28" stop-opacity="1"/></radialGradient><radialGradient id="rg21" gradientUnits="objectBoundingBox" cx="0.35" cy="0.3" r="0.85" fx="0.3" fy="0.25"><stop offset="0" stop-color="#ff7ab0" stop-opacity="1"/><stop offset="0.45" stop-color="#b52a64" stop-opacity="1"/><stop offset="1" stop-color="#4a0c28" stop-opacity="1"/></radialGradient><radialGradient id="rg22" gradientUnits="objectBoundingBox" cx="0.5" cy="0.5" r="0.5"><stop offset="0" stop-color="#ffd0e8" stop-opacity="0.55"/><stop offset="0.35" stop-color="#ffd0e8" stop-opacity="0.28"/><stop offset="1" stop-color="#ffd0e8" stop-opacity="0"/></radialGradient><radialGradient id="rg23" gradientUnits="objectBoundingBox" cx="0.5" cy="0.5" r="0.5"><stop offset="0" stop-color="#ffd0e8" stop-opacity="0.55"/><stop offset="0.35" stop-color="#ffd0e8" stop-opacity="0.28"/><stop offset="1" stop-color="#ffd0e8" stop-opacity="0"/></radialGradient><radialGradient id="rg24" gradientUnits="objectBoundingBox" cx="0.5" cy="0.5" r="0.5"><stop offset="0" stop-color="#ffd0e8" stop-opacity="0.55"/><stop offset="0.35" stop-color="#ffd0e8" stop-opacity="0.28"/><stop offset="1" stop-color="#ffd0e8" stop-opacity="0"/></radialGradient><radialGradient id="rg25" gradientUnits="objectBoundingBox" cx="0.5" cy="0.5" r="0.5"><stop offset="0" stop-color="#ffd0e8" stop-opacity="0.55"/><stop offset="0.35" stop-color="#ffd0e8" stop-opacity="0.28"/><stop offset="1" stop-color="#ffd0e8" stop-opacity="0"/></radialGradient><radialGradient id="rg26" gradientUnits="objectBoundingBox" cx="0.5" cy="0.5" r="0.5"><stop offset="0" stop-color="#ffd0e8" stop-opacity="0.55"/><stop offset="0.35" stop-color="#ffd0e8" stop-opacity="0.28"/><stop offset="1" stop-color="#ffd0e8" stop-opacity="0"/></radialGradient><radialGradient id="rg27" gradientUnits="objectBoundingBox" cx="0.5" cy="0.5" r="0.5"><stop offset="0" stop-color="#ffd0e8" stop-opacity="0.55"/><stop offset="0.35" stop-color="#ffd0e8" stop-opacity="0.28"/><stop offset="1" stop-color="#ffd0e8" stop-opacity="0"/></radialGradient><clipPath id="cp28"><rect x="0.5" y="0.5" width="127.0" height="127.0"/></clipPath><radialGradient id="rg29" gradientUnits="objectBoundingBox" cx="0.3" cy="0.25" r="0.85" fx="0.25" fy="0.2"><stop offset="0" stop-color="#ff7ab0" stop-opacity="1"/><stop offset="0.45" stop-color="#b52a64" stop-opacity="1"/><stop offset="1" stop-color="#4a0c28" stop-opacity="1"/></radialGradient><radialGradient id="rg30" gradientUnits="objectBoundingBox" cx="0.5" cy="0.5" r="0.5"><stop offset="0" stop-color="#ff9a5c" stop-opacity="0.55"/><stop offset="0.35" stop-color="#ff9a5c" stop-opacity="0.28"/><stop offset="1" stop-color="#ff9a5c" stop-opacity="0"/></radialGradient><radialGradient id="rg31" gradientUnits="objectBoundingBox" cx="0.4" cy="0.35" r="0.5"><stop offset="0" stop-color="#fff0c0" stop-opacity="1"/><stop offset="0.5" stop-color="#ffb070" stop-opacity="1"/><stop offset="1" stop-color="#c04030" stop-opacity="1"/></radialGradient><radialGradient id="rg32" gradientUnits="objectBoundingBox" cx="0.5" cy="0.5" r="0.5"><stop offset="0" stop-color="#ff9a5c" stop-opacity="0.55"/><stop offset="0.35" stop-color="#ff9a5c" stop-opacity="0.28"/><stop offset="1" stop-color="#ff9a5c" stop-opacity="0"/></radialGradient><radialGradient id="rg33" gradientUnits="objectBoundingBox" cx="0.4" cy="0.35" r="0.5"><stop offset="0" stop-color="#fff0c0" stop-opacity="1"/><stop offset="0.5" stop-color="#ffb070" stop-opacity="1"/><stop offset="1" stop-color="#c04030" stop-opacity="1"/></radialGradient><radialGradient id="rg34" gradientUnits="objectBoundingBox" cx="0.5" cy="0.5" r="0.5"><stop offset="0" stop-color="#ff9a5c" stop-opacity="0.55"/><stop offset="0.35" stop-color="#ff9a5c" stop-opacity="0.28"/><stop offset="1" stop-color="#ff9a5c" stop-opacity="0"/></radialGradient><radialGradient id="rg35" gradientUnits="objectBoundingBox" cx="0.4" cy="0.35" r="0.5"><stop offset="0" stop-color="#fff0c0" stop-opacity="1"/><stop offset="0.5" stop-color="#ffb070" stop-opacity="1"/><stop offset="1" stop-color="#c04030" stop-opacity="1"/></radialGradient><radialGradient id="rg36" gradientUnits="objectBoundingBox" cx="0.5" cy="0.5" r="0.5"><stop offset="0" stop-color="#ff9a5c" stop-opacity="0.55"/><stop offset="0.35" stop-color="#ff9a5c" stop-opacity="0.28"/><stop offset="1" stop-color="#ff9a5c" stop-opacity="0"/></radialGradient><radialGradient id="rg37" gradientUnits="objectBoundingBox" cx="0.4" cy="0.35" r="0.5"><stop offset="0" stop-color="#fff0c0" stop-opacity="1"/><stop offset="0.5" stop-color="#ffb070" stop-opacity="1"/><stop offset="1" stop-color="#c04030" stop-opacity="1"/></radialGradient><radialGradient id="rg38" gradientUnits="objectBoundingBox" cx="0.5" cy="0.5" r="0.5"><stop offset="0" stop-color="#ff9a5c" stop-opacity="0.55"/><stop offset="0.35" stop-color="#ff9a5c" stop-opacity="0.28"/><stop offset="1" stop-color="#ff9a5c" stop-opacity="0"/></radialGradient><radialGradient id="rg39" gradientUnits="objectBoundingBox" cx="0.4" cy="0.35" r="0.5"><stop offset="0" stop-color="#fff0c0" stop-opacity="1"/><stop offset="0.5" stop-color="#ffb070" stop-opacity="1"/><stop offset="1" stop-color="#c04030" stop-opacity="1"/></radialGradient><radialGradient id="rg40" gradientUnits="objectBoundingBox" cx="0.5" cy="0.5" r="0.5"><stop offset="0" stop-color="#ff9a5c" stop-opacity="0.55"/><stop offset="0.35" stop-color="#ff9a5c" stop-opacity="0.28"/><stop offset="1" stop-color="#ff9a5c" stop-opacity="0"/></radialGradient><radialGradient id="rg41" gradientUnits="objectBoundingBox" cx="0.4" cy="0.35" r="0.5"><stop offset="0" stop-color="#fff0c0" stop-opacity="1"/><stop offset="0.5" stop-color="#ffb070" stop-opacity="1"/><stop offset="1" stop-color="#c04030" stop-opacity="1"/></radialGradient><radialGradient id="rg42" gradientUnits="objectBoundingBox" cx="0.5" cy="0.5" r="0.5"><stop offset="0" stop-color="#ff9a5c" stop-opacity="0.55"/><stop offset="0.35" stop-color="#ff9a5c" stop-opacity="0.28"/><stop offset="1" stop-color="#ff9a5c" stop-opacity="0"/></radialGradient><radialGradient id="rg43" gradientUnits="objectBoundingBox" cx="0.4" cy="0.35" r="0.5"><stop offset="0" stop-color="#fff0c0" stop-opacity="1"/><stop offset="0.5" stop-color="#ffb070" stop-opacity="1"/><stop offset="1" stop-color="#c04030" stop-opacity="1"/></radialGradient><radialGradient id="rg44" gradientUnits="objectBoundingBox" cx="0.5" cy="0.5" r="0.5"><stop offset="0" stop-color="#ff9a5c" stop-opacity="0.55"/><stop offset="0.35" stop-color="#ff9a5c" stop-opacity="0.28"/><stop offset="1" stop-color="#ff9a5c" stop-opacity="0"/></radialGradient><radialGradient id="rg45" gradientUnits="objectBoundingBox" cx="0.4" cy="0.35" r="0.5"><stop offset="0" stop-color="#fff0c0" stop-opacity="1"/><stop offset="0.5" stop-color="#ffb070" stop-opacity="1"/><stop offset="1" stop-color="#c04030" stop-opacity="1"/></radialGradient><radialGradient id="rg46" gradientUnits="objectBoundingBox" cx="0.5" cy="0.5" r="0.5"><stop offset="0" stop-color="#ffffff" stop-opacity="0.35"/><stop offset="1" stop-color="#ffffff" stop-opacity="0"/></radialGradient><radialGradient id="rg47" gradientUnits="objectBoundingBox" cx="0.35" cy="0.3" r="0.85" fx="0.3" fy="0.25"><stop offset="0" stop-color="#ff7ab0" stop-opacity="1"/><stop offset="0.45" stop-color="#b52a64" stop-opacity="1"/><stop offset="1" stop-color="#4a0c28" stop-opacity="1"/></radialGradient><radialGradient id="rg48" gradientUnits="objectBoundingBox" cx="0.35" cy="0.3" r="0.85" fx="0.3" fy="0.25"><stop offset="0" stop-color="#ff7ab0" stop-opacity="1"/><stop offset="0.45" stop-color="#b52a64" stop-opacity="1"/><stop offset="1" stop-color="#4a0c28" stop-opacity="1"/></radialGradient><radialGradient id="rg49" gradientUnits="objectBoundingBox" cx="0.5" cy="0.5" r="0.5"><stop offset="0" stop-color="#ffd0e8" stop-opacity="0.55"/><stop offset="0.35" stop-color="#ffd0e8" stop-opacity="0.28"/><stop offset="1" stop-color="#ffd0e8" stop-opacity="0"/></radialGradient><radialGradient id="rg50" gradientUnits="objectBoundingBox" cx="0.5" cy="0.5" r="0.5"><stop offset="0" stop-color="#ffd0e8" stop-opacity="0.55"/><stop offset="0.35" stop-color="#ffd0e8" stop-opacity="0.28"/><stop offset="1" stop-color="#ffd0e8" stop-opacity="0"/></radialGradient><radialGradient id="rg51" gradientUnits="objectBoundingBox" cx="0.5" cy="0.5" r="0.5"><stop offset="0" stop-color="#ffd0e8" stop-opacity="0.55"/><stop offset="0.35" stop-color="#ffd0e8" stop-opacity="0.28"/><stop offset="1" stop-color="#ffd0e8" stop-opacity="0"/></radialGradient><radialGradient id="rg52" gradientUnits="objectBoundingBox" cx="0.5" cy="0.5" r="0.5"><stop offset="0" stop-color="#ffd0e8" stop-opacity="0.55"/><stop offset="0.35" stop-color="#ffd0e8" stop-opacity="0.28"/><stop offset="1" stop-color="#ffd0e8" stop-opacity="0"/></radialGradient><radialGradient id="rg53" gradientUnits="objectBoundingBox" cx="0.5" cy="0.5" r="0.5"><stop offset="0" stop-color="#ffd0e8" stop-opacity="0.55"/><stop offset="0.35" stop-color="#ffd0e8" stop-opacity="0.28"/><stop offset="1" stop-color="#ffd0e8" stop-opacity="0"/></radialGradient><radialGradient id="rg54" gradientUnits="objectBoundingBox" cx="0.5" cy="0.5" r="0.5"><stop offset="0" stop-color="#ffd0e8" stop-opacity="0.55"/><stop offset="0.35" stop-color="#ffd0e8" stop-opacity="0.28"/><stop offset="1" stop-color="#ffd0e8" stop-opacity="0"/></radialGradient></defs>
<g transform="translate(0.0,0)"><g clip-path="url(#cp1)"><polyline points="46,72 35.29,60.11 18.17,54.55" fill="none" stroke="#120c10" stroke-width="7.2" stroke-linecap="round" stroke-linejoin="round"/><polyline points="46,72 35.29,60.11 18.17,54.55" fill="none" stroke="#b52a64" stroke-width="5" stroke-linecap="round" stroke-linejoin="round"/><polyline points="44.9,70.9 34.19,59.01 17.07,53.45" fill="none" stroke="#ff7ab0" stroke-width="1.5" stroke-linecap="round" stroke-linejoin="round" opacity="0.7"/><circle cx="35.29" cy="60.11" r="3.1" fill="#b52a64" stroke="#120c10" stroke-width="0.6"/><circle cx="18.17" cy="54.55" r="2.25" fill="#120c10"/><polyline points="82,72 96.83,66.01 114.66,68.51" fill="none" stroke="#120c10" stroke-width="7.2" stroke-linecap="round" stroke-linejoin="round"/><polyline points="82,72 96.83,66.01 114.66,68.51" fill="none" stroke="#b52a64" stroke-width="5" stroke-linecap="round" stroke-linejoin="round"/><polyline points="80.9,70.9 95.73,64.91 113.56,67.41" fill="none" stroke="#ff7ab0" stroke-width="1.5" stroke-linecap="round" stroke-linejoin="round" opacity="0.7"/><circle cx="96.83" cy="66.01" r="3.1" fill="#b52a64" stroke="#120c10" stroke-width="0.6"/><circle cx="114.66" cy="68.51" r="2.25" fill="#120c10"/><polyline points="44,78 28.01,77.44 10.18,79.95" fill="none" stroke="#120c10" stroke-width="7.2" stroke-linecap="round" stroke-linejoin="round"/><polyline points="44,78 28.01,77.44 10.18,79.95" fill="none" stroke="#b52a64" stroke-width="5" stroke-linecap="round" stroke-linejoin="round"/><polyline points="42.9,76.9 26.91,76.34 9.08,78.85" fill="none" stroke="#ff7ab0" stroke-width="1.5" stroke-linecap="round" stroke-linejoin="round" opacity="0.7"/><circle cx="28.01" cy="77.44" r="3.1" fill="#b52a64" stroke="#120c10" stroke-width="0.6"/><circle cx="10.18" cy="79.95" r="2.25" fill="#120c10"/><polyline points="84,78 98.13,70.49 115.25,64.93" fill="none" stroke="#120c10" stroke-width="7.2" stroke-linecap="round" stroke-linejoin="round"/><polyline points="84,78 98.13,70.49 115.25,64.93" fill="none" stroke="#b52a64" stroke-width="5" stroke-linecap="round" stroke-linejoin="round"/><polyline points="82.9,76.9 97.03,69.39 114.15,63.83" fill="none" stroke="#ff7ab0" stroke-width="1.5" stroke-linecap="round" stroke-linejoin="round" opacity="0.7"/><circle cx="98.13" cy="70.49" r="3.1" fill="#b52a64" stroke="#120c10" stroke-width="0.6"/><circle cx="115.25" cy="64.93" r="2.25" fill="#120c10"/><polyline points="44,84 28.02,83.16 10.9,77.6" fill="none" stroke="#120c10" stroke-width="7.2" stroke-linecap="round" stroke-linejoin="round"/><polyline points="44,84 28.02,83.16 10.9,77.6" fill="none" stroke="#b52a64" stroke-width="5" stroke-linecap="round" stroke-linejoin="round"/><polyline points="42.9,82.9 26.92,82.06 9.8,76.5" fill="none" stroke="#ff7ab0" stroke-width="1.5" stroke-linecap="round" stroke-linejoin="round" opacity="0.7"/><circle cx="28.02" cy="83.16" r="3.1" fill="#b52a64" stroke="#120c10" stroke-width="0.6"/><circle cx="10.9" cy="77.6" r="2.25" fill="#120c10"/><polyline points="84,84 98.73,90.25 116.55,92.76" fill="none" stroke="#120c10" stroke-width="7.2" stroke-linecap="round" stroke-linejoin="round"/><polyline points="84,84 98.73,90.25 116.55,92.76" fill="none" stroke="#b52a64" stroke-width="5" stroke-linecap="round" stroke-linejoin="round"/><polyline points="82.9,82.9 97.63,89.15 115.45,91.66" fill="none" stroke="#ff7ab0" stroke-width="1.5" stroke-linecap="round" stroke-linejoin="round" opacity="0.7"/><circle cx="98.73" cy="90.25" r="3.1" fill="#b52a64" stroke="#120c10" stroke-width="0.6"/><circle cx="116.55" cy="92.76" r="2.25" fill="#120c10"/><polyline points="46,90 35.29,101.89 17.76,105.94" fill="none" stroke="#120c10" stroke-width="7.2" stroke-linecap="round" stroke-linejoin="round"/><polyline points="46,90 35.29,101.89 17.76,105.94" fill="none" stroke="#b52a64" stroke-width="5" stroke-linecap="round" stroke-linejoin="round"/><polyline points="44.9,88.9 34.19,100.79 16.66,104.84" fill="none" stroke="#ff7ab0" stroke-width="1.5" stroke-linecap="round" stroke-linejoin="round" opacity="0.7"/><circle cx="35.29" cy="101.89" r="3.1" fill="#b52a64" stroke="#120c10" stroke-width="0.6"/><circle cx="17.76" cy="105.94" r="2.25" fill="#120c10"/><polyline points="82,90 96.83,95.99 114.37,91.94" fill="none" stroke="#120c10" stroke-width="7.2" stroke-linecap="round" stroke-linejoin="round"/><polyline points="82,90 96.83,95.99 114.37,91.94" fill="none" stroke="#b52a64" stroke-width="5" stroke-linecap="round" stroke-linejoin="round"/><polyline points="80.9,88.9 95.73,94.89 113.27,90.84" fill="none" stroke="#ff7ab0" stroke-width="1.5" stroke-linecap="round" stroke-linejoin="round" opacity="0.7"/><circle cx="96.83" cy="95.99" r="3.1" fill="#b52a64" stroke="#120c10" stroke-width="0.6"/><circle cx="114.37" cy="91.94" r="2.25" fill="#120c10"/><path d="M95,42 C95,45.48 95.54,49.27 94.64,52.45 C93.73,55.63 91.21,58.19 89.56,61.07 C87.9,63.96 86.82,67.47 84.71,69.75 C82.59,72.03 79.57,73.25 76.88,74.75 C74.18,76.24 71.41,78.34 68.54,78.7 C65.68,79.06 62.62,77.47 59.68,76.92 C56.73,76.37 53.53,76.69 50.86,75.4 C48.2,74.12 45.99,71.43 43.7,69.21 C41.41,66.98 38.61,64.92 37.14,62.05 C35.66,59.17 35.64,55.28 34.85,51.94 C34.06,48.6 32.48,45.35 32.38,42 C32.28,38.65 33.46,35.2 34.26,31.86 C35.05,28.52 35.5,24.71 37.14,21.95 C38.78,19.2 41.82,17.56 44.11,15.34 C46.39,13.11 48.28,10.09 50.86,8.6 C53.45,7.1 56.64,6.92 59.59,6.37 C62.53,5.82 65.71,4.71 68.54,5.3 C71.38,5.89 73.93,8.42 76.62,9.91 C79.31,11.4 82.46,12.14 84.71,14.25 C86.95,16.35 88.42,19.65 90.08,22.54 C91.73,25.42 93.82,28.31 94.64,31.55 C95.46,34.8 95,38.52 95,42 Z" fill="#120c10" stroke="#120c10" stroke-width="2.2" stroke-linejoin="round"/><path d="M95,42 C95,45.48 95.54,49.27 94.64,52.45 C93.73,55.63 91.21,58.19 89.56,61.07 C87.9,63.96 86.82,67.47 84.71,69.75 C82.59,72.03 79.57,73.25 76.88,74.75 C74.18,76.24 71.41,78.34 68.54,78.7 C65.68,79.06 62.62,77.47 59.68,76.92 C56.73,76.37 53.53,76.69 50.86,75.4 C48.2,74.12 45.99,71.43 43.7,69.21 C41.41,66.98 38.61,64.92 37.14,62.05 C35.66,59.17 35.64,55.28 34.85,51.94 C34.06,48.6 32.48,45.35 32.38,42 C32.28,38.65 33.46,35.2 34.26,31.86 C35.05,28.52 35.5,24.71 37.14,21.95 C38.78,19.2 41.82,17.56 44.11,15.34 C46.39,13.11 48.28,10.09 50.86,8.6 C53.45,7.1 56.64,6.92 59.59,6.37 C62.53,5.82 65.71,4.71 68.54,5.3 C71.38,5.89 73.93,8.42 76.62,9.91 C79.31,11.4 82.46,12.14 84.71,14.25 C86.95,16.35 88.42,19.65 90.08,22.54 C91.73,25.42 93.82,28.31 94.64,31.55 C95.46,34.8 95,38.52 95,42 Z" fill="url(#rg2)"/><path d="M48.0,20 Q64.0,25 80.0,20" fill="none" stroke="#4a0c28" stroke-width="1.6" opacity="0.85"/><path d="M43.0,32 Q64.0,37 85.0,32" fill="none" stroke="#4a0c28" stroke-width="1.6" opacity="0.85"/><path d="M38.0,44 Q64.0,49 90.0,44" fill="none" stroke="#4a0c28" stroke-width="1.6" opacity="0.85"/><path d="M43.0,56 Q64.0,61 85.0,56" fill="none" stroke="#4a0c28" stroke-width="1.6" opacity="0.85"/><path d="M48.0,66 Q64.0,71 80.0,66" fill="none" stroke="#4a0c28" stroke-width="1.6" opacity="0.85"/><circle cx="50" cy="26" r="12" fill="url(#rg3)"/><circle cx="50" cy="26" r="5" fill="url(#rg4)" stroke="#120c10" stroke-width="1"/><circle cx="48.5" cy="24.25" r="1.4" fill="#ffffff" opacity="0.8"/><circle cx="76" cy="30" r="14.4" fill="url(#rg5)"/><circle cx="76" cy="30" r="6" fill="url(#rg6)" stroke="#120c10" stroke-width="1"/><circle cx="74.2" cy="27.9" r="1.68" fill="#ffffff" opacity="0.8"/><circle cx="60" cy="46" r="15.6" fill="url(#rg7)"/><circle cx="60" cy="46" r="6.5" fill="url(#rg8)" stroke="#120c10" stroke-width="1"/><circle cx="58.05" cy="43.73" r="1.82" fill="#ffffff" opacity="0.8"/><circle cx="80" cy="50" r="10.8" fill="url(#rg9)"/><circle cx="80" cy="50" r="4.5" fill="url(#rg10)" stroke="#120c10" stroke-width="1"/><circle cx="78.65" cy="48.42" r="1.26" fill="#ffffff" opacity="0.8"/><circle cx="46" cy="52" r="12" fill="url(#rg11)"/><circle cx="46" cy="52" r="5" fill="url(#rg12)" stroke="#120c10" stroke-width="1"/><circle cx="44.5" cy="50.25" r="1.4" fill="#ffffff" opacity="0.8"/><circle cx="66" cy="64" r="10.8" fill="url(#rg13)"/><circle cx="66" cy="64" r="4.5" fill="url(#rg14)" stroke="#120c10" stroke-width="1"/><circle cx="64.65" cy="62.42" r="1.26" fill="#ffffff" opacity="0.8"/><circle cx="56" cy="16" r="8.4" fill="url(#rg15)"/><circle cx="56" cy="16" r="3.5" fill="url(#rg16)" stroke="#120c10" stroke-width="1"/><circle cx="54.95" cy="14.78" r="0.98" fill="#ffffff" opacity="0.8"/><circle cx="72" cy="14" r="8.4" fill="url(#rg17)"/><circle cx="72" cy="14" r="3.5" fill="url(#rg18)" stroke="#120c10" stroke-width="1"/><circle cx="70.95" cy="12.78" r="0.98" fill="#ffffff" opacity="0.8"/><ellipse cx="50.9" cy="24" rx="11.7" ry="9" fill="url(#rg19)"/><path d="M85,82 C85,83.66 84.43,85.44 83.4,86.97 C82.38,88.51 80.74,90.02 78.85,91.19 C76.96,92.36 74.51,93.38 72.04,94.01 C69.56,94.65 66.68,95 64,95 C61.32,95 58.44,94.65 55.96,94.01 C53.49,93.38 51.04,92.36 49.15,91.19 C47.26,90.02 45.62,88.51 44.6,86.97 C43.57,85.44 43,83.66 43,82 C43,80.34 43.57,78.56 44.6,77.03 C45.62,75.49 47.26,73.98 49.15,72.81 C51.04,71.64 53.49,70.62 55.96,69.99 C58.44,69.35 61.32,69 64,69 C66.68,69 69.56,69.35 72.04,69.99 C74.51,70.62 76.96,71.64 78.85,72.81 C80.74,73.98 82.38,75.49 83.4,77.03 C84.43,78.56 85,80.34 85,82 Z" fill="#120c10" stroke="#120c10" stroke-width="2.2" stroke-linejoin="round"/><path d="M85,82 C85,83.66 84.43,85.44 83.4,86.97 C82.38,88.51 80.74,90.02 78.85,91.19 C76.96,92.36 74.51,93.38 72.04,94.01 C69.56,94.65 66.68,95 64,95 C61.32,95 58.44,94.65 55.96,94.01 C53.49,93.38 51.04,92.36 49.15,91.19 C47.26,90.02 45.62,88.51 44.6,86.97 C43.57,85.44 43,83.66 43,82 C43,80.34 43.57,78.56 44.6,77.03 C45.62,75.49 47.26,73.98 49.15,72.81 C51.04,71.64 53.49,70.62 55.96,69.99 C58.44,69.35 61.32,69 64,69 C66.68,69 69.56,69.35 72.04,69.99 C74.51,70.62 76.96,71.64 78.85,72.81 C80.74,73.98 82.38,75.49 83.4,77.03 C84.43,78.56 85,80.34 85,82 Z" fill="url(#rg20)"/><path d="M54.5,76 L55.0,67 L59.5,76 Z" fill="#120c10" stroke="#120c10" stroke-width="1.8" stroke-linejoin="round"/><path d="M54.5,76 L55.0,67 L59.5,76 Z" fill="#ff7ab0"/><path d="M48.5,75 L49.0,65 L53.5,75 Z" fill="#120c10" stroke="#120c10" stroke-width="1.8" stroke-linejoin="round"/><path d="M48.5,75 L49.0,65 L53.5,75 Z" fill="#ff7ab0"/><path d="M42.5,74 L43.0,63 L47.5,74 Z" fill="#120c10" stroke="#120c10" stroke-width="1.8" stroke-linejoin="round"/><path d="M42.5,74 L43.0,63 L47.5,74 Z" fill="#ff7ab0"/><path d="M68.5,76 L73.0,67 L73.5,76 Z" fill="#120c10" stroke="#120c10" stroke-width="1.8" stroke-linejoin="round"/><path d="M68.5,76 L73.0,67 L73.5,76 Z" fill="#ff7ab0"/><path d="M74.5,75 L79.0,65 L79.5,75 Z" fill="#120c10" stroke="#120c10" stroke-width="1.8" stroke-linejoin="round"/><path d="M74.5,75 L79.0,65 L79.5,75 Z" fill="#ff7ab0"/><path d="M80.5,74 L85.0,63 L85.5,74 Z" fill="#120c10" stroke="#120c10" stroke-width="1.8" stroke-linejoin="round"/><path d="M80.5,74 L85.0,63 L85.5,74 Z" fill="#ff7ab0"/><path d="M55.95510928218913,91.49801803931251 L52.42982302564229,85.2112000238584 L58.0089706148347,89.77462375260033 Z" fill="#120c10" stroke="#120c10" stroke-width="2" stroke-linejoin="round"/><path d="M55.95510928218913,91.49801803931251 L52.42982302564229,85.2112000238584 L58.0089706148347,89.77462375260033 Z" fill="#b52a64"/><path d="M59.006104502864986,89.19892823392796 L57.84363742013795,82.08553282585365 L61.525538402217485,88.28192928736242 Z" fill="#120c10" stroke="#120c10" stroke-width="2" stroke-linejoin="round"/><path d="M59.006104502864986,89.19892823392796 L57.84363742013795,82.08553282585365 L61.525538402217485,88.28192928736242 Z" fill="#b52a64"/><path d="M62.65943722254338,88.08199233194546 L63.99999999999999,78.0 L65.34056277745663,88.08199233194546 Z" fill="#120c10" stroke="#120c10" stroke-width="2" stroke-linejoin="round"/><path d="M62.65943722254338,88.08199233194546 L63.99999999999999,78.0 L65.34056277745663,88.08199233194546 Z" fill="#b52a64"/><path d="M66.47446159778251,88.28192928736242 L70.15636257986202,82.08553282585365 L68.99389549713501,89.19892823392794 Z" fill="#120c10" stroke="#120c10" stroke-width="2" stroke-linejoin="round"/><path d="M66.47446159778251,88.28192928736242 L70.15636257986202,82.08553282585365 L68.99389549713501,89.19892823392794 Z" fill="#b52a64"/><path d="M69.99102938516529,89.77462375260033 L75.57017697435771,85.2112000238584 L72.04489071781087,91.49801803931251 Z" fill="#120c10" stroke="#120c10" stroke-width="2" stroke-linejoin="round"/><path d="M69.99102938516529,89.77462375260033 L75.57017697435771,85.2112000238584 L72.04489071781087,91.49801803931251 Z" fill="#b52a64"/><path d="M78,100 C78,101.4 77.62,102.91 76.93,104.21 C76.25,105.51 75.16,106.79 73.9,107.78 C72.64,108.77 71.01,109.63 69.36,110.16 C67.71,110.7 65.79,111 64,111 C62.21,111 60.29,110.7 58.64,110.16 C56.99,109.63 55.36,108.77 54.1,107.78 C52.84,106.79 51.75,105.51 51.07,104.21 C50.38,102.91 50,101.4 50,100 C50,98.6 50.38,97.09 51.07,95.79 C51.75,94.49 52.84,93.21 54.1,92.22 C55.36,91.23 56.99,90.37 58.64,89.84 C60.29,89.3 62.21,89 64,89 C65.79,89 67.71,89.3 69.36,89.84 C71.01,90.37 72.64,91.23 73.9,92.22 C75.16,93.21 76.25,94.49 76.93,95.79 C77.62,97.09 78,98.6 78,100 Z" fill="#120c10" stroke="#120c10" stroke-width="2.2" stroke-linejoin="round"/><path d="M78,100 C78,101.4 77.62,102.91 76.93,104.21 C76.25,105.51 75.16,106.79 73.9,107.78 C72.64,108.77 71.01,109.63 69.36,110.16 C67.71,110.7 65.79,111 64,111 C62.21,111 60.29,110.7 58.64,110.16 C56.99,109.63 55.36,108.77 54.1,107.78 C52.84,106.79 51.75,105.51 51.07,104.21 C50.38,102.91 50,101.4 50,100 C50,98.6 50.38,97.09 51.07,95.79 C51.75,94.49 52.84,93.21 54.1,92.22 C55.36,91.23 56.99,90.37 58.64,89.84 C60.29,89.3 62.21,89 64,89 C65.79,89 67.71,89.3 69.36,89.84 C71.01,90.37 72.64,91.23 73.9,92.22 C75.16,93.21 76.25,94.49 76.93,95.79 C77.62,97.09 78,98.6 78,100 Z" fill="url(#rg21)"/><path d="M58.0,107 Q48.0,114 56.0,124 Q54.0,115 61.0,110 Z" fill="#120c10" stroke="#120c10" stroke-width="2" stroke-linejoin="round"/><path d="M58.0,107 Q48.0,114 56.0,124 Q54.0,115 61.0,110 Z" fill="#ff7ab0"/><path d="M70.0,107 Q80.0,114 72.0,124 Q74.0,115 67.0,110 Z" fill="#120c10" stroke="#120c10" stroke-width="2" stroke-linejoin="round"/><path d="M70.0,107 Q80.0,114 72.0,124 Q74.0,115 67.0,110 Z" fill="#ff7ab0"/><circle cx="58.5" cy="101" r="5.76" fill="url(#rg22)"/><circle cx="58.5" cy="101" r="1.8" fill="#ffd0e8" stroke="#120c10" stroke-width="0.5"/><circle cx="57.96" cy="100.46" r="0.63" fill="#ffffff" opacity="0.9"/><circle cx="69.5" cy="101" r="5.76" fill="url(#rg23)"/><circle cx="69.5" cy="101" r="1.8" fill="#ffd0e8" stroke="#120c10" stroke-width="0.5"/><circle cx="68.96" cy="100.46" r="0.63" fill="#ffffff" opacity="0.9"/><circle cx="61.5" cy="105" r="4.16" fill="url(#rg24)"/><circle cx="61.5" cy="105" r="1.3" fill="#ffd0e8" stroke="#120c10" stroke-width="0.5"/><circle cx="61.11" cy="104.61" r="0.45" fill="#ffffff" opacity="0.9"/><circle cx="66.5" cy="105" r="4.16" fill="url(#rg25)"/><circle cx="66.5" cy="105" r="1.3" fill="#ffd0e8" stroke="#120c10" stroke-width="0.5"/><circle cx="66.11" cy="104.61" r="0.45" fill="#ffffff" opacity="0.9"/><circle cx="56" cy="97.5" r="3.52" fill="url(#rg26)"/><circle cx="56" cy="97.5" r="1.1" fill="#ffd0e8" stroke="#120c10" stroke-width="0.5"/><circle cx="55.67" cy="97.17" r="0.39" fill="#ffffff" opacity="0.9"/><circle cx="72" cy="97.5" r="3.52" fill="url(#rg27)"/><circle cx="72" cy="97.5" r="1.1" fill="#ffd0e8" stroke="#120c10" stroke-width="0.5"/><circle cx="71.67" cy="97.17" r="0.39" fill="#ffffff" opacity="0.9"/></g></g>
<g transform="translate(128.0,0)"><g clip-path="url(#cp28)"><polyline points="46,72 31.17,66.01 13.34,68.51" fill="none" stroke="#120c10" stroke-width="7.2" stroke-linecap="round" stroke-linejoin="round"/><polyline points="46,72 31.17,66.01 13.34,68.51" fill="none" stroke="#b52a64" stroke-width="5" stroke-linecap="round" stroke-linejoin="round"/><polyline points="44.9,70.9 30.07,64.91 12.24,67.41" fill="none" stroke="#ff7ab0" stroke-width="1.5" stroke-linecap="round" stroke-linejoin="round" opacity="0.7"/><circle cx="31.17" cy="66.01" r="3.1" fill="#b52a64" stroke="#120c10" stroke-width="0.6"/><circle cx="13.34" cy="68.51" r="2.25" fill="#120c10"/><polyline points="82,72 92.71,60.11 109.83,54.55" fill="none" stroke="#120c10" stroke-width="7.2" stroke-linecap="round" stroke-linejoin="round"/><polyline points="82,72 92.71,60.11 109.83,54.55" fill="none" stroke="#b52a64" stroke-width="5" stroke-linecap="round" stroke-linejoin="round"/><polyline points="80.9,70.9 91.61,59.01 108.73,53.45" fill="none" stroke="#ff7ab0" stroke-width="1.5" stroke-linecap="round" stroke-linejoin="round" opacity="0.7"/><circle cx="92.71" cy="60.11" r="3.1" fill="#b52a64" stroke="#120c10" stroke-width="0.6"/><circle cx="109.83" cy="54.55" r="2.25" fill="#120c10"/><polyline points="44,78 29.87,70.49 12.75,64.93" fill="none" stroke="#120c10" stroke-width="7.2" stroke-linecap="round" stroke-linejoin="round"/><polyline points="44,78 29.87,70.49 12.75,64.93" fill="none" stroke="#b52a64" stroke-width="5" stroke-linecap="round" stroke-linejoin="round"/><polyline points="42.9,76.9 28.77,69.39 11.65,63.83" fill="none" stroke="#ff7ab0" stroke-width="1.5" stroke-linecap="round" stroke-linejoin="round" opacity="0.7"/><circle cx="29.87" cy="70.49" r="3.1" fill="#b52a64" stroke="#120c10" stroke-width="0.6"/><circle cx="12.75" cy="64.93" r="2.25" fill="#120c10"/><polyline points="84,78 99.99,77.44 117.82,79.95" fill="none" stroke="#120c10" stroke-width="7.2" stroke-linecap="round" stroke-linejoin="round"/><polyline points="84,78 99.99,77.44 117.82,79.95" fill="none" stroke="#b52a64" stroke-width="5" stroke-linecap="round" stroke-linejoin="round"/><polyline points="82.9,76.9 98.89,76.34 116.72,78.85" fill="none" stroke="#ff7ab0" stroke-width="1.5" stroke-linecap="round" stroke-linejoin="round" opacity="0.7"/><circle cx="99.99" cy="77.44" r="3.1" fill="#b52a64" stroke="#120c10" stroke-width="0.6"/><circle cx="117.82" cy="79.95" r="2.25" fill="#120c10"/><polyline points="44,84 29.27,90.25 11.45,92.76" fill="none" stroke="#120c10" stroke-width="7.2" stroke-linecap="round" stroke-linejoin="round"/><polyline points="44,84 29.27,90.25 11.45,92.76" fill="none" stroke="#b52a64" stroke-width="5" stroke-linecap="round" stroke-linejoin="round"/><polyline points="42.9,82.9 28.17,89.15 10.35,91.66" fill="none" stroke="#ff7ab0" stroke-width="1.5" stroke-linecap="round" stroke-linejoin="round" opacity="0.7"/><circle cx="29.27" cy="90.25" r="3.1" fill="#b52a64" stroke="#120c10" stroke-width="0.6"/><circle cx="11.45" cy="92.76" r="2.25" fill="#120c10"/><polyline points="84,84 99.98,83.16 117.1,77.6" fill="none" stroke="#120c10" stroke-width="7.2" stroke-linecap="round" stroke-linejoin="round"/><polyline points="84,84 99.98,83.16 117.1,77.6" fill="none" stroke="#b52a64" stroke-width="5" stroke-linecap="round" stroke-linejoin="round"/><polyline points="82.9,82.9 98.88,82.06 116,76.5" fill="none" stroke="#ff7ab0" stroke-width="1.5" stroke-linecap="round" stroke-linejoin="round" opacity="0.7"/><circle cx="99.98" cy="83.16" r="3.1" fill="#b52a64" stroke="#120c10" stroke-width="0.6"/><circle cx="117.1" cy="77.6" r="2.25" fill="#120c10"/><polyline points="46,90 31.17,95.99 13.63,91.94" fill="none" stroke="#120c10" stroke-width="7.2" stroke-linecap="round" stroke-linejoin="round"/><polyline points="46,90 31.17,95.99 13.63,91.94" fill="none" stroke="#b52a64" stroke-width="5" stroke-linecap="round" stroke-linejoin="round"/><polyline points="44.9,88.9 30.07,94.89 12.53,90.84" fill="none" stroke="#ff7ab0" stroke-width="1.5" stroke-linecap="round" stroke-linejoin="round" opacity="0.7"/><circle cx="31.17" cy="95.99" r="3.1" fill="#b52a64" stroke="#120c10" stroke-width="0.6"/><circle cx="13.63" cy="91.94" r="2.25" fill="#120c10"/><polyline points="82,90 92.71,101.89 110.24,105.94" fill="none" stroke="#120c10" stroke-width="7.2" stroke-linecap="round" stroke-linejoin="round"/><polyline points="82,90 92.71,101.89 110.24,105.94" fill="none" stroke="#b52a64" stroke-width="5" stroke-linecap="round" stroke-linejoin="round"/><polyline points="80.9,88.9 91.61,100.79 109.14,104.84" fill="none" stroke="#ff7ab0" stroke-width="1.5" stroke-linecap="round" stroke-linejoin="round" opacity="0.7"/><circle cx="92.71" cy="101.89" r="3.1" fill="#b52a64" stroke="#120c10" stroke-width="0.6"/><circle cx="110.24" cy="105.94" r="2.25" fill="#120c10"/><path d="M95,42 C95,45.48 95.54,49.27 94.64,52.45 C93.73,55.63 91.21,58.19 89.56,61.07 C87.9,63.96 86.82,67.47 84.71,69.75 C82.59,72.03 79.57,73.25 76.88,74.75 C74.18,76.24 71.41,78.34 68.54,78.7 C65.68,79.06 62.62,77.47 59.68,76.92 C56.73,76.37 53.53,76.69 50.86,75.4 C48.2,74.12 45.99,71.43 43.7,69.21 C41.41,66.98 38.61,64.92 37.14,62.05 C35.66,59.17 35.64,55.28 34.85,51.94 C34.06,48.6 32.48,45.35 32.38,42 C32.28,38.65 33.46,35.2 34.26,31.86 C35.05,28.52 35.5,24.71 37.14,21.95 C38.78,19.2 41.82,17.56 44.11,15.34 C46.39,13.11 48.28,10.09 50.86,8.6 C53.45,7.1 56.64,6.92 59.59,6.37 C62.53,5.82 65.71,4.71 68.54,5.3 C71.38,5.89 73.93,8.42 76.62,9.91 C79.31,11.4 82.46,12.14 84.71,14.25 C86.95,16.35 88.42,19.65 90.08,22.54 C91.73,25.42 93.82,28.31 94.64,31.55 C95.46,34.8 95,38.52 95,42 Z" fill="#120c10" stroke="#120c10" stroke-width="2.2" stroke-linejoin="round"/><path d="M95,42 C95,45.48 95.54,49.27 94.64,52.45 C93.73,55.63 91.21,58.19 89.56,61.07 C87.9,63.96 86.82,67.47 84.71,69.75 C82.59,72.03 79.57,73.25 76.88,74.75 C74.18,76.24 71.41,78.34 68.54,78.7 C65.68,79.06 62.62,77.47 59.68,76.92 C56.73,76.37 53.53,76.69 50.86,75.4 C48.2,74.12 45.99,71.43 43.7,69.21 C41.41,66.98 38.61,64.92 37.14,62.05 C35.66,59.17 35.64,55.28 34.85,51.94 C34.06,48.6 32.48,45.35 32.38,42 C32.28,38.65 33.46,35.2 34.26,31.86 C35.05,28.52 35.5,24.71 37.14,21.95 C38.78,19.2 41.82,17.56 44.11,15.34 C46.39,13.11 48.28,10.09 50.86,8.6 C53.45,7.1 56.64,6.92 59.59,6.37 C62.53,5.82 65.71,4.71 68.54,5.3 C71.38,5.89 73.93,8.42 76.62,9.91 C79.31,11.4 82.46,12.14 84.71,14.25 C86.95,16.35 88.42,19.65 90.08,22.54 C91.73,25.42 93.82,28.31 94.64,31.55 C95.46,34.8 95,38.52 95,42 Z" fill="url(#rg29)"/><path d="M48.0,20 Q64.0,25 80.0,20" fill="none" stroke="#4a0c28" stroke-width="1.6" opacity="0.85"/><path d="M43.0,32 Q64.0,37 85.0,32" fill="none" stroke="#4a0c28" stroke-width="1.6" opacity="0.85"/><path d="M38.0,44 Q64.0,49 90.0,44" fill="none" stroke="#4a0c28" stroke-width="1.6" opacity="0.85"/><path d="M43.0,56 Q64.0,61 85.0,56" fill="none" stroke="#4a0c28" stroke-width="1.6" opacity="0.85"/><path d="M48.0,66 Q64.0,71 80.0,66" fill="none" stroke="#4a0c28" stroke-width="1.6" opacity="0.85"/><circle cx="50" cy="26" r="12" fill="url(#rg30)"/><circle cx="50" cy="26" r="5" fill="url(#rg31)" stroke="#120c10" stroke-width="1"/><circle cx="48.5" cy="24.25" r="1.4" fill="#ffffff" opacity="0.8"/><circle cx="76" cy="30" r="14.4" fill="url(#rg32)"/><circle cx="76" cy="30" r="6" fill="url(#rg33)" stroke="#120c10" stroke-width="1"/><circle cx="74.2" cy="27.9" r="1.68" fill="#ffffff" opacity="0.8"/><circle cx="60" cy="46" r="15.6" fill="url(#rg34)"/><circle cx="60" cy="46" r="6.5" fill="url(#rg35)" stroke="#120c10" stroke-width="1"/><circle cx="58.05" cy="43.73" r="1.82" fill="#ffffff" opacity="0.8"/><circle cx="80" cy="50" r="10.8" fill="url(#rg36)"/><circle cx="80" cy="50" r="4.5" fill="url(#rg37)" stroke="#120c10" stroke-width="1"/><circle cx="78.65" cy="48.42" r="1.26" fill="#ffffff" opacity="0.8"/><circle cx="46" cy="52" r="12" fill="url(#rg38)"/><circle cx="46" cy="52" r="5" fill="url(#rg39)" stroke="#120c10" stroke-width="1"/><circle cx="44.5" cy="50.25" r="1.4" fill="#ffffff" opacity="0.8"/><circle cx="66" cy="64" r="10.8" fill="url(#rg40)"/><circle cx="66" cy="64" r="4.5" fill="url(#rg41)" stroke="#120c10" stroke-width="1"/><circle cx="64.65" cy="62.42" r="1.26" fill="#ffffff" opacity="0.8"/><circle cx="56" cy="16" r="8.4" fill="url(#rg42)"/><circle cx="56" cy="16" r="3.5" fill="url(#rg43)" stroke="#120c10" stroke-width="1"/><circle cx="54.95" cy="14.78" r="0.98" fill="#ffffff" opacity="0.8"/><circle cx="72" cy="14" r="8.4" fill="url(#rg44)"/><circle cx="72" cy="14" r="3.5" fill="url(#rg45)" stroke="#120c10" stroke-width="1"/><circle cx="70.95" cy="12.78" r="0.98" fill="#ffffff" opacity="0.8"/><ellipse cx="50.9" cy="24" rx="11.7" ry="9" fill="url(#rg46)"/><path d="M85,82 C85,83.66 84.43,85.44 83.4,86.97 C82.38,88.51 80.74,90.02 78.85,91.19 C76.96,92.36 74.51,93.38 72.04,94.01 C69.56,94.65 66.68,95 64,95 C61.32,95 58.44,94.65 55.96,94.01 C53.49,93.38 51.04,92.36 49.15,91.19 C47.26,90.02 45.62,88.51 44.6,86.97 C43.57,85.44 43,83.66 43,82 C43,80.34 43.57,78.56 44.6,77.03 C45.62,75.49 47.26,73.98 49.15,72.81 C51.04,71.64 53.49,70.62 55.96,69.99 C58.44,69.35 61.32,69 64,69 C66.68,69 69.56,69.35 72.04,69.99 C74.51,70.62 76.96,71.64 78.85,72.81 C80.74,73.98 82.38,75.49 83.4,77.03 C84.43,78.56 85,80.34 85,82 Z" fill="#120c10" stroke="#120c10" stroke-width="2.2" stroke-linejoin="round"/><path d="M85,82 C85,83.66 84.43,85.44 83.4,86.97 C82.38,88.51 80.74,90.02 78.85,91.19 C76.96,92.36 74.51,93.38 72.04,94.01 C69.56,94.65 66.68,95 64,95 C61.32,95 58.44,94.65 55.96,94.01 C53.49,93.38 51.04,92.36 49.15,91.19 C47.26,90.02 45.62,88.51 44.6,86.97 C43.57,85.44 43,83.66 43,82 C43,80.34 43.57,78.56 44.6,77.03 C45.62,75.49 47.26,73.98 49.15,72.81 C51.04,71.64 53.49,70.62 55.96,69.99 C58.44,69.35 61.32,69 64,69 C66.68,69 69.56,69.35 72.04,69.99 C74.51,70.62 76.96,71.64 78.85,72.81 C80.74,73.98 82.38,75.49 83.4,77.03 C84.43,78.56 85,80.34 85,82 Z" fill="url(#rg47)"/><path d="M54.5,76 L55.0,67 L59.5,76 Z" fill="#120c10" stroke="#120c10" stroke-width="1.8" stroke-linejoin="round"/><path d="M54.5,76 L55.0,67 L59.5,76 Z" fill="#ff7ab0"/><path d="M48.5,75 L49.0,65 L53.5,75 Z" fill="#120c10" stroke="#120c10" stroke-width="1.8" stroke-linejoin="round"/><path d="M48.5,75 L49.0,65 L53.5,75 Z" fill="#ff7ab0"/><path d="M42.5,74 L43.0,63 L47.5,74 Z" fill="#120c10" stroke="#120c10" stroke-width="1.8" stroke-linejoin="round"/><path d="M42.5,74 L43.0,63 L47.5,74 Z" fill="#ff7ab0"/><path d="M68.5,76 L73.0,67 L73.5,76 Z" fill="#120c10" stroke="#120c10" stroke-width="1.8" stroke-linejoin="round"/><path d="M68.5,76 L73.0,67 L73.5,76 Z" fill="#ff7ab0"/><path d="M74.5,75 L79.0,65 L79.5,75 Z" fill="#120c10" stroke="#120c10" stroke-width="1.8" stroke-linejoin="round"/><path d="M74.5,75 L79.0,65 L79.5,75 Z" fill="#ff7ab0"/><path d="M80.5,74 L85.0,63 L85.5,74 Z" fill="#120c10" stroke="#120c10" stroke-width="1.8" stroke-linejoin="round"/><path d="M80.5,74 L85.0,63 L85.5,74 Z" fill="#ff7ab0"/><path d="M55.95510928218913,91.49801803931251 L52.42982302564229,85.2112000238584 L58.0089706148347,89.77462375260033 Z" fill="#120c10" stroke="#120c10" stroke-width="2" stroke-linejoin="round"/><path d="M55.95510928218913,91.49801803931251 L52.42982302564229,85.2112000238584 L58.0089706148347,89.77462375260033 Z" fill="#b52a64"/><path d="M59.006104502864986,89.19892823392796 L57.84363742013795,82.08553282585365 L61.525538402217485,88.28192928736242 Z" fill="#120c10" stroke="#120c10" stroke-width="2" stroke-linejoin="round"/><path d="M59.006104502864986,89.19892823392796 L57.84363742013795,82.08553282585365 L61.525538402217485,88.28192928736242 Z" fill="#b52a64"/><path d="M62.65943722254338,88.08199233194546 L63.99999999999999,78.0 L65.34056277745663,88.08199233194546 Z" fill="#120c10" stroke="#120c10" stroke-width="2" stroke-linejoin="round"/><path d="M62.65943722254338,88.08199233194546 L63.99999999999999,78.0 L65.34056277745663,88.08199233194546 Z" fill="#b52a64"/><path d="M66.47446159778251,88.28192928736242 L70.15636257986202,82.08553282585365 L68.99389549713501,89.19892823392794 Z" fill="#120c10" stroke="#120c10" stroke-width="2" stroke-linejoin="round"/><path d="M66.47446159778251,88.28192928736242 L70.15636257986202,82.08553282585365 L68.99389549713501,89.19892823392794 Z" fill="#b52a64"/><path d="M69.99102938516529,89.77462375260033 L75.57017697435771,85.2112000238584 L72.04489071781087,91.49801803931251 Z" fill="#120c10" stroke="#120c10" stroke-width="2" stroke-linejoin="round"/><path d="M69.99102938516529,89.77462375260033 L75.57017697435771,85.2112000238584 L72.04489071781087,91.49801803931251 Z" fill="#b52a64"/><path d="M78,100 C78,101.4 77.62,102.91 76.93,104.21 C76.25,105.51 75.16,106.79 73.9,107.78 C72.64,108.77 71.01,109.63 69.36,110.16 C67.71,110.7 65.79,111 64,111 C62.21,111 60.29,110.7 58.64,110.16 C56.99,109.63 55.36,108.77 54.1,107.78 C52.84,106.79 51.75,105.51 51.07,104.21 C50.38,102.91 50,101.4 50,100 C50,98.6 50.38,97.09 51.07,95.79 C51.75,94.49 52.84,93.21 54.1,92.22 C55.36,91.23 56.99,90.37 58.64,89.84 C60.29,89.3 62.21,89 64,89 C65.79,89 67.71,89.3 69.36,89.84 C71.01,90.37 72.64,91.23 73.9,92.22 C75.16,93.21 76.25,94.49 76.93,95.79 C77.62,97.09 78,98.6 78,100 Z" fill="#120c10" stroke="#120c10" stroke-width="2.2" stroke-linejoin="round"/><path d="M78,100 C78,101.4 77.62,102.91 76.93,104.21 C76.25,105.51 75.16,106.79 73.9,107.78 C72.64,108.77 71.01,109.63 69.36,110.16 C67.71,110.7 65.79,111 64,111 C62.21,111 60.29,110.7 58.64,110.16 C56.99,109.63 55.36,108.77 54.1,107.78 C52.84,106.79 51.75,105.51 51.07,104.21 C50.38,102.91 50,101.4 50,100 C50,98.6 50.38,97.09 51.07,95.79 C51.75,94.49 52.84,93.21 54.1,92.22 C55.36,91.23 56.99,90.37 58.64,89.84 C60.29,89.3 62.21,89 64,89 C65.79,89 67.71,89.3 69.36,89.84 C71.01,90.37 72.64,91.23 73.9,92.22 C75.16,93.21 76.25,94.49 76.93,95.79 C77.62,97.09 78,98.6 78,100 Z" fill="url(#rg48)"/><path d="M58.0,107 Q48.0,114 56.0,124 Q54.0,115 61.0,110 Z" fill="#120c10" stroke="#120c10" stroke-width="2" stroke-linejoin="round"/><path d="M58.0,107 Q48.0,114 56.0,124 Q54.0,115 61.0,110 Z" fill="#ff7ab0"/><path d="M70.0,107 Q80.0,114 72.0,124 Q74.0,115 67.0,110 Z" fill="#120c10" stroke="#120c10" stroke-width="2" stroke-linejoin="round"/><path d="M70.0,107 Q80.0,114 72.0,124 Q74.0,115 67.0,110 Z" fill="#ff7ab0"/><circle cx="58.5" cy="101" r="5.76" fill="url(#rg49)"/><circle cx="58.5" cy="101" r="1.8" fill="#ffd0e8" stroke="#120c10" stroke-width="0.5"/><circle cx="57.96" cy="100.46" r="0.63" fill="#ffffff" opacity="0.9"/><circle cx="69.5" cy="101" r="5.76" fill="url(#rg50)"/><circle cx="69.5" cy="101" r="1.8" fill="#ffd0e8" stroke="#120c10" stroke-width="0.5"/><circle cx="68.96" cy="100.46" r="0.63" fill="#ffffff" opacity="0.9"/><circle cx="61.5" cy="105" r="4.16" fill="url(#rg51)"/><circle cx="61.5" cy="105" r="1.3" fill="#ffd0e8" stroke="#120c10" stroke-width="0.5"/><circle cx="61.11" cy="104.61" r="0.45" fill="#ffffff" opacity="0.9"/><circle cx="66.5" cy="105" r="4.16" fill="url(#rg52)"/><circle cx="66.5" cy="105" r="1.3" fill="#ffd0e8" stroke="#120c10" stroke-width="0.5"/><circle cx="66.11" cy="104.61" r="0.45" fill="#ffffff" opacity="0.9"/><circle cx="56" cy="97.5" r="3.52" fill="url(#rg53)"/><circle cx="56" cy="97.5" r="1.1" fill="#ffd0e8" stroke="#120c10" stroke-width="0.5"/><circle cx="55.67" cy="97.17" r="0.39" fill="#ffffff" opacity="0.9"/><circle cx="72" cy="97.5" r="3.52" fill="url(#rg54)"/><circle cx="72" cy="97.5" r="1.1" fill="#ffd0e8" stroke="#120c10" stroke-width="0.5"/><circle cx="71.67" cy="97.17" r="0.39" fill="#ffffff" opacity="0.9"/></g></g>
</svg>
