<svg xmlns="http://www.w3.org/2000/svg" width="1024" height="512" viewBox="0 0 256 128">
<defs><clipPath id="cp1"><rect x="0.5" y="0.5" width="127.0" height="127.0"/></clipPath><radialGradient id="rg2" gradientUnits="objectBoundingBox" cx="0.5" cy="0.5" r="0.5"><stop offset="0" stop-color="#6af0ff" stop-opacity="0.3"/><stop offset="0.35" stop-color="#6af0ff" stop-opacity="0.15"/><stop offset="1" stop-color="#6af0ff" stop-opacity="0"/></radialGradient><radialGradient id="rg3" gradientUnits="objectBoundingBox" cx="0.35" cy="0.25" r="0.85" fx="0.3" fy="0.2"><stop offset="0" stop-color="#b09cff" stop-opacity="1"/><stop offset="0.45" stop-color="#4e36a8" stop-opacity="1"/><stop offset="1" stop-color="#170c36" stop-opacity="1"/></radialGradient><radialGradient id="rg4" gradientUnits="objectBoundingBox" cx="0.5" cy="0.25" r="0.85" fx="0.45" fy="0.2"><stop offset="0" stop-color="#b09cff" stop-opacity="1"/><stop offset="0.45" stop-color="#4e36a8" stop-opacity="1"/><stop offset="1" stop-color="#170c36" stop-opacity="1"/></radialGradient><radialGradient id="rg5" gradientUnits="objectBoundingBox" cx="0.5" cy="0.5" r="0.5"><stop offset="0" stop-color="#ffffff" stop-opacity="0.3"/><stop offset="1" stop-color="#ffffff" stop-opacity="0"/></radialGradient><radialGradient id="rg6" gradientUnits="objectBoundingBox" cx="0.35" cy="0.3" r="0.85" fx="0.3" fy="0.25"><stop offset="0" stop-color="#4e36a8" stop-opacity="1"/><stop offset="0.45" stop-color="#170c36" stop-opacity="1"/><stop offset="1" stop-color="#170c36" stop-opacity="1"/></radialGradient><radialGradient id="rg7" gradientUnits="objectBoundingBox" cx="0.5" cy="0.5" r="0.5"><stop offset="0" stop-color="#6af0ff" stop-opacity="0.55"/><stop offset="0.35" stop-color="#6af0ff" stop-opacity="0.28"/><stop offset="1" stop-color="#6af0ff" stop-opacity="0"/></radialGradient><radialGradient id="rg8" gradientUnits="objectBoundingBox" cx="0.5" cy="0.5" r="0.5"><stop offset="0" stop-color="#6af0ff" stop-opacity="0.55"/><stop offset="0.35" stop-color="#6af0ff" stop-opacity="0.28"/><stop offset="1" stop-color="#6af0ff" stop-opacity="0"/></radialGradient><radialGradient id="rg9" gradientUnits="objectBoundingBox" cx="0.5" cy="0.5" r="0.5"><stop offset="0" stop-color="#6af0ff" stop-opacity="0.55"/><stop offset="0.35" stop-color="#6af0ff" stop-opacity="0.28"/><stop offset="1" stop-color="#6af0ff" stop-opacity="0"/></radialGradient><radialGradient id="rg10" gradientUnits="objectBoundingBox" cx="0.5" cy="0.5" r="0.5"><stop offset="0" stop-color="#6af0ff" stop-opacity="0.55"/><stop offset="0.35" stop-color="#6af0ff" stop-opacity="0.28"/><stop offset="1" stop-color="#6af0ff" stop-opacity="0"/></radialGradient><radialGradient id="rg11" gradientUnits="objectBoundingBox" cx="0.5" cy="0.5" r="0.5"><stop offset="0" stop-color="#6af0ff" stop-opacity="0.55"/><stop offset="0.35" stop-color="#6af0ff" stop-opacity="0.28"/><stop offset="1" stop-color="#6af0ff" stop-opacity="0"/></radialGradient><radialGradient id="rg12" gradientUnits="objectBoundingBox" cx="0.5" cy="0.5" r="0.5"><stop offset="0" stop-color="#6af0ff" stop-opacity="0.55"/><stop offset="0.35" stop-color="#6af0ff" stop-opacity="0.28"/><stop offset="1" stop-color="#6af0ff" stop-opacity="0"/></radialGradient><radialGradient id="rg13" gradientUnits="objectBoundingBox" cx="0.5" cy="0.5" r="0.5"><stop offset="0" stop-color="#6af0ff" stop-opacity="0.55"/><stop offset="0.35" stop-color="#6af0ff" stop-opacity="0.28"/><stop offset="1" stop-color="#6af0ff" stop-opacity="0"/></radialGradient><clipPath id="cp14"><rect x="0.5" y="0.5" width="127.0" height="127.0"/></clipPath><radialGradient id="rg15" gradientUnits="objectBoundingBox" cx="0.5" cy="0.5" r="0.5"><stop offset="0" stop-color="#6af0ff" stop-opacity="0.3"/><stop offset="0.35" stop-color="#6af0ff" stop-opacity="0.15"/><stop offset="1" stop-color="#6af0ff" stop-opacity="0"/></radialGradient><radialGradient id="rg16" gradientUnits="objectBoundingBox" cx="0.35" cy="0.25" r="0.85" fx="0.3" fy="0.2"><stop offset="0" stop-color="#b09cff" stop-opacity="1"/><stop offset="0.45" stop-color="#4e36a8" stop-opacity="1"/><stop offset="1" stop-color="#170c36" stop-opacity="1"/></radialGradient><radialGradient id="rg17" gradientUnits="objectBoundingBox" cx="0.5" cy="0.25" r="0.85" fx="0.45" fy="0.2"><stop offset="0" stop-color="#b09cff" stop-opacity="1"/><stop offset="0.45" stop-color="#4e36a8" stop-opacity="1"/><stop offset="1" stop-color="#170c36" stop-opacity="1"/></radialGradient><radialGradient id="rg18" gradientUnits="objectBoundingBox" cx="0.5" cy="0.5" r="0.5"><stop offset="0" stop-color="#ffffff" stop-opacity="0.3"/><stop offset="1" stop-color="#ffffff" stop-opacity="0"/></radialGradient><radialGradient id="rg19" gradientUnits="objectBoundingBox" cx="0.35" cy="0.3" r="0.85" fx="0.3" fy="0.25"><stop offset="0" stop-color="#4e36a8" stop-opacity="1"/><stop offset="0.45" stop-color="#170c36" stop-opacity="1"/><stop offset="1" stop-color="#170c36" stop-opacity="1"/></radialGradient><radialGradient id="rg20" gradientUnits="objectBoundingBox" cx="0.5" cy="0.5" r="0.5"><stop offset="0" stop-color="#6af0ff" stop-opacity="0.55"/><stop offset="0.35" stop-color="#6af0ff" stop-opacity="0.28"/><stop offset="1" stop-color="#6af0ff" stop-opacity="0"/></radialGradient><radialGradient id="rg21" gradientUnits="objectBoundingBox" cx="0.5" cy="0.5" r="0.5"><stop offset="0" stop-color="#6af0ff" stop-opacity="0.55"/><stop offset="0.35" stop-color="#6af0ff" stop-opacity="0.28"/><stop offset="1" stop-color="#6af0ff" stop-opacity="0"/></radialGradient><radialGradient id="rg22" gradientUnits="objectBoundingBox" cx="0.5" cy="0.5" r="0.5"><stop offset="0" stop-color="#6af0ff" stop-opacity="0.55"/><stop offset="0.35" stop-color="#6af0ff" stop-opacity="0.28"/><stop offset="1" stop-color="#6af0ff" stop-opacity="0"/></radialGradient><radialGradient id="rg23" gradientUnits="objectBoundingBox" cx="0.5" cy="0.5" r="0.5"><stop offset="0" stop-color="#6af0ff" stop-opacity="0.55"/><stop offset="0.35" stop-color="#6af0ff" stop-opacity="0.28"/><stop offset="1" stop-color="#6af0ff" stop-opacity="0"/></radialGradient><radialGradient id="rg24" gradientUnits="objectBoundingBox" cx="0.5" cy="0.5" r="0.5"><stop offset="0" stop-color="#6af0ff" stop-opacity="0.55"/><stop offset="0.35" stop-color="#6af0ff" stop-opacity="0.28"/><stop offset="1" stop-color="#6af0ff" stop-opacity="0"/></radialGradient><radialGradient id="rg25" gradientUnits="objectBoundingBox" cx="0.5" cy="0.5" r="0.5"><stop offset="0" stop-color="#6af0ff" stop-opacity="0.55"/><stop offset="0.35" stop-color="#6af0ff" stop-opacity="0.28"/><stop offset="1" stop-color="#6af0ff" stop-opacity="0"/></radialGradient><radialGradient id="rg26" gradientUnits="objectBoundingBox" cx="0.5" cy="0.5" r="0.5"><stop offset="0" stop-color="#6af0ff" stop-opacity="0.55"/><stop offset="0.35" stop-color="#6af0ff" stop-opacity="0.28"/><stop offset="1" stop-color="#6af0ff" stop-opacity="0"/></radialGradient></defs>
<g transform="translate(0,0) scale(1.0)"><g clip-path="url(#cp1)"><polyline points="35.81,55.74 17.39,52.49 3.64,42.5" fill="none" stroke="#120c10" stroke-width="7.2" stroke-linecap="round" stroke-linejoin="round"/><polyline points="35.81,55.74 17.39,52.49 3.64,42.5" fill="none" stroke="#4e36a8" stroke-width="5" stroke-linecap="round" stroke-linejoin="round"/><polyline points="34.71,54.64 16.29,51.39 2.54,41.4" fill="none" stroke="#b09cff" stroke-width="1.5" stroke-linecap="round" stroke-linejoin="round" opacity="0.7"/><circle cx="3.64" cy="42.5" r="2" fill="#6af0ff" stroke="#120c10" stroke-width="0.5"/><polyline points="92.19,55.74 110.61,52.49 124.36,42.5" fill="none" stroke="#120c10" stroke-width="7.2" stroke-linecap="round" stroke-linejoin="round"/><polyline points="92.19,55.74 110.61,52.49 124.36,42.5" fill="none" stroke="#4e36a8" stroke-width="5" stroke-linecap="round" stroke-linejoin="round"/><polyline points="91.09,54.64 109.51,51.39 123.26,41.4" fill="none" stroke="#b09cff" stroke-width="1.5" stroke-linecap="round" stroke-linejoin="round" opacity="0.7"/><circle cx="124.36" cy="42.5" r="2" fill="#6af0ff" stroke="#120c10" stroke-width="0.5"/><polyline points="34.02,67.05 13.32,64.14 -4.75,70.01" fill="none" stroke="#120c10" stroke-width="7.2" stroke-linecap="round" stroke-linejoin="round"/><polyline points="34.02,67.05 13.32,64.14 -4.75,70.01" fill="none" stroke="#4e36a8" stroke-width="5" stroke-linecap="round" stroke-linejoin="round"/><polyline points="32.92,65.95 12.22,63.04 -5.85,68.91" fill="none" stroke="#b09cff" stroke-width="1.5" stroke-linecap="round" stroke-linejoin="round" opacity="0.7"/><circle cx="-4.75" cy="70.01" r="2" fill="#6af0ff" stroke="#120c10" stroke-width="0.5"/><polyline points="93.98,67.05 114.68,64.14 132.75,70.01" fill="none" stroke="#120c10" stroke-width="7.2" stroke-linecap="round" stroke-linejoin="round"/><polyline points="93.98,67.05 114.68,64.14 132.75,70.01" fill="none" stroke="#4e36a8" stroke-width="5" stroke-linecap="round" stroke-linejoin="round"/><polyline points="92.88,65.95 113.58,63.04 131.65,68.91" fill="none" stroke="#b09cff" stroke-width="1.5" stroke-linecap="round" stroke-linejoin="round" opacity="0.7"/><circle cx="132.75" cy="70.01" r="2" fill="#6af0ff" stroke="#120c10" stroke-width="0.5"/><polyline points="36.59,78.2 20.18,89.27 2.35,91.78" fill="none" stroke="#120c10" stroke-width="7.2" stroke-linecap="round" stroke-linejoin="round"/><polyline points="36.59,78.2 20.18,89.27 2.35,91.78" fill="none" stroke="#4e36a8" stroke-width="5" stroke-linecap="round" stroke-linejoin="round"/><polyline points="35.49,77.1 19.08,88.17 1.25,90.68" fill="none" stroke="#b09cff" stroke-width="1.5" stroke-linecap="round" stroke-linejoin="round" opacity="0.7"/><circle cx="2.35" cy="91.78" r="2" fill="#6af0ff" stroke="#120c10" stroke-width="0.5"/><polyline points="91.41,78.2 107.82,89.27 125.65,91.78" fill="none" stroke="#120c10" stroke-width="7.2" stroke-linecap="round" stroke-linejoin="round"/><polyline points="91.41,78.2 107.82,89.27 125.65,91.78" fill="none" stroke="#4e36a8" stroke-width="5" stroke-linecap="round" stroke-linejoin="round"/><polyline points="90.31,77.1 106.72,88.17 124.55,90.68" fill="none" stroke="#b09cff" stroke-width="1.5" stroke-linecap="round" stroke-linejoin="round" opacity="0.7"/><circle cx="125.65" cy="91.78" r="2" fill="#6af0ff" stroke="#120c10" stroke-width="0.5"/><polyline points="43.16,87.58 29.81,97.28 22.77,110.52" fill="none" stroke="#120c10" stroke-width="7.2" stroke-linecap="round" stroke-linejoin="round"/><polyline points="43.16,87.58 29.81,97.28 22.77,110.52" fill="none" stroke="#4e36a8" stroke-width="5" stroke-linecap="round" stroke-linejoin="round"/><polyline points="42.06,86.48 28.71,96.18 21.67,109.42" fill="none" stroke="#b09cff" stroke-width="1.5" stroke-linecap="round" stroke-linejoin="round" opacity="0.7"/><circle cx="22.77" cy="110.52" r="2" fill="#6af0ff" stroke="#120c10" stroke-width="0.5"/><polyline points="84.84,87.58 98.19,97.28 105.23,110.52" fill="none" stroke="#120c10" stroke-width="7.2" stroke-linecap="round" stroke-linejoin="round"/><polyline points="84.84,87.58 98.19,97.28 105.23,110.52" fill="none" stroke="#4e36a8" stroke-width="5" stroke-linecap="round" stroke-linejoin="round"/><polyline points="83.74,86.48 97.09,96.18 104.13,109.42" fill="none" stroke="#b09cff" stroke-width="1.5" stroke-linecap="round" stroke-linejoin="round" opacity="0.7"/><circle cx="105.23" cy="110.52" r="2" fill="#6af0ff" stroke="#120c10" stroke-width="0.5"/><circle cx="64" cy="56" r="56" fill="url(#rg2)"/><path d="M69,54 C69,58.46 69.31,63.34 68.55,67.37 C67.79,71.4 65.88,74.76 64.44,78.19 C63.01,81.63 61.67,85.15 59.93,87.98 C58.19,90.8 56.16,93.95 54,95.14 C51.85,96.34 49.3,95.36 47,95.16 C44.7,94.96 42.42,94.97 40.2,93.94 C37.98,92.92 35.45,91.62 33.68,89 C31.91,86.37 30.82,81.86 29.56,78.19 C28.29,74.52 26.95,71.01 26.08,66.98 C25.21,62.95 24.27,58.28 24.34,54 C24.41,49.72 25.68,45.4 26.5,41.28 C27.31,37.17 28,33.03 29.2,29.31 C30.4,25.6 31.82,21.41 33.68,19 C35.54,16.59 38.12,16.02 40.34,14.85 C42.56,13.69 44.72,12.33 47,12 C49.28,11.67 51.89,11.41 54,12.86 C56.11,14.31 57.87,17.96 59.67,20.7 C61.47,23.44 63.32,25.99 64.8,29.31 C66.28,32.63 67.85,36.52 68.55,40.63 C69.25,44.75 69,49.54 69,54 Z" fill="#120c10" stroke="#120c10" stroke-width="2.8" stroke-linejoin="round"/><path d="M69,54 C69,58.46 69.31,63.34 68.55,67.37 C67.79,71.4 65.88,74.76 64.44,78.19 C63.01,81.63 61.67,85.15 59.93,87.98 C58.19,90.8 56.16,93.95 54,95.14 C51.85,96.34 49.3,95.36 47,95.16 C44.7,94.96 42.42,94.97 40.2,93.94 C37.98,92.92 35.45,91.62 33.68,89 C31.91,86.37 30.82,81.86 29.56,78.19 C28.29,74.52 26.95,71.01 26.08,66.98 C25.21,62.95 24.27,58.28 24.34,54 C24.41,49.72 25.68,45.4 26.5,41.28 C27.31,37.17 28,33.03 29.2,29.31 C30.4,25.6 31.82,21.41 33.68,19 C35.54,16.59 38.12,16.02 40.34,14.85 C42.56,13.69 44.72,12.33 47,12 C49.28,11.67 51.89,11.41 54,12.86 C56.11,14.31 57.87,17.96 59.67,20.7 C61.47,23.44 63.32,25.99 64.8,29.31 C66.28,32.63 67.85,36.52 68.55,40.63 C69.25,44.75 69,49.54 69,54 Z" fill="url(#rg3)"/><path d="M59.0,26 Q50.5,31 42.0,24 Q39.0,31 46.0,34" fill="none" stroke="#170c36" stroke-width="2.2" opacity="0.9"/><path d="M59.0,26 Q50.5,31 42.0,24 Q39.0,31 46.0,34" fill="none" stroke="#6af0ff" stroke-width="0.8" opacity="0.8"/><path d="M59.0,40 Q48.5,35 38.0,38 Q35.0,45 42.0,48" fill="none" stroke="#170c36" stroke-width="2.2" opacity="0.9"/><path d="M59.0,40 Q48.5,35 38.0,38 Q35.0,45 42.0,48" fill="none" stroke="#6af0ff" stroke-width="0.8" opacity="0.8"/><path d="M59.0,54 Q46.5,59 34.0,52 Q31.0,59 38.0,62" fill="none" stroke="#170c36" stroke-width="2.2" opacity="0.9"/><path d="M59.0,54 Q46.5,59 34.0,52 Q31.0,59 38.0,62" fill="none" stroke="#6af0ff" stroke-width="0.8" opacity="0.8"/><path d="M59.0,68 Q48.5,63 38.0,66 Q35.0,73 42.0,76" fill="none" stroke="#170c36" stroke-width="2.2" opacity="0.9"/><path d="M59.0,68 Q48.5,63 38.0,66 Q35.0,73 42.0,76" fill="none" stroke="#6af0ff" stroke-width="0.8" opacity="0.8"/><path d="M59.0,82 Q50.5,87 42.0,80 Q39.0,87 46.0,90" fill="none" stroke="#170c36" stroke-width="2.2" opacity="0.9"/><path d="M59.0,82 Q50.5,87 42.0,80 Q39.0,87 46.0,90" fill="none" stroke="#6af0ff" stroke-width="0.8" opacity="0.8"/><path d="M103,54 C103,58.46 103.31,63.34 102.55,67.37 C101.79,71.4 99.88,74.76 98.44,78.19 C97.01,81.63 95.67,85.15 93.93,87.98 C92.19,90.8 90.16,93.95 88,95.14 C85.85,96.34 83.3,95.36 81,95.16 C78.7,94.96 76.42,94.97 74.2,93.94 C71.98,92.92 69.45,91.62 67.68,89 C65.91,86.37 64.82,81.86 63.56,78.19 C62.29,74.52 60.95,71.01 60.08,66.98 C59.21,62.95 58.27,58.28 58.34,54 C58.41,49.72 59.68,45.4 60.5,41.28 C61.31,37.17 62,33.03 63.2,29.31 C64.4,25.6 65.82,21.41 67.68,19 C69.54,16.59 72.12,16.02 74.34,14.85 C76.56,13.69 78.72,12.33 81,12 C83.28,11.67 85.89,11.41 88,12.86 C90.11,14.31 91.87,17.96 93.67,20.7 C95.47,23.44 97.32,25.99 98.8,29.31 C100.28,32.63 101.85,36.52 102.55,40.63 C103.25,44.75 103,49.54 103,54 Z" fill="#120c10" stroke="#120c10" stroke-width="2.8" stroke-linejoin="round"/><path d="M103,54 C103,58.46 103.31,63.34 102.55,67.37 C101.79,71.4 99.88,74.76 98.44,78.19 C97.01,81.63 95.67,85.15 93.93,87.98 C92.19,90.8 90.16,93.95 88,95.14 C85.85,96.34 83.3,95.36 81,95.16 C78.7,94.96 76.42,94.97 74.2,93.94 C71.98,92.92 69.45,91.62 67.68,89 C65.91,86.37 64.82,81.86 63.56,78.19 C62.29,74.52 60.95,71.01 60.08,66.98 C59.21,62.95 58.27,58.28 58.34,54 C58.41,49.72 59.68,45.4 60.5,41.28 C61.31,37.17 62,33.03 63.2,29.31 C64.4,25.6 65.82,21.41 67.68,19 C69.54,16.59 72.12,16.02 74.34,14.85 C76.56,13.69 78.72,12.33 81,12 C83.28,11.67 85.89,11.41 88,12.86 C90.11,14.31 91.87,17.96 93.67,20.7 C95.47,23.44 97.32,25.99 98.8,29.31 C100.28,32.63 101.85,36.52 102.55,40.63 C103.25,44.75 103,49.54 103,54 Z" fill="url(#rg4)"/><path d="M69.0,26 Q77.5,31 86.0,24 Q89.0,31 82.0,34" fill="none" stroke="#170c36" stroke-width="2.2" opacity="0.9"/><path d="M69.0,26 Q77.5,31 86.0,24 Q89.0,31 82.0,34" fill="none" stroke="#6af0ff" stroke-width="0.8" opacity="0.8"/><path d="M69.0,40 Q79.5,35 90.0,38 Q93.0,45 86.0,48" fill="none" stroke="#170c36" stroke-width="2.2" opacity="0.9"/><path d="M69.0,40 Q79.5,35 90.0,38 Q93.0,45 86.0,48" fill="none" stroke="#6af0ff" stroke-width="0.8" opacity="0.8"/><path d="M69.0,54 Q81.5,59 94.0,52 Q97.0,59 90.0,62" fill="none" stroke="#170c36" stroke-width="2.2" opacity="0.9"/><path d="M69.0,54 Q81.5,59 94.0,52 Q97.0,59 90.0,62" fill="none" stroke="#6af0ff" stroke-width="0.8" opacity="0.8"/><path d="M69.0,68 Q79.5,63 90.0,66 Q93.0,73 86.0,76" fill="none" stroke="#170c36" stroke-width="2.2" opacity="0.9"/><path d="M69.0,68 Q79.5,63 90.0,66 Q93.0,73 86.0,76" fill="none" stroke="#6af0ff" stroke-width="0.8" opacity="0.8"/><path d="M69.0,82 Q77.5,87 86.0,80 Q89.0,87 82.0,90" fill="none" stroke="#170c36" stroke-width="2.2" opacity="0.9"/><path d="M69.0,82 Q77.5,87 86.0,80 Q89.0,87 82.0,90" fill="none" stroke="#6af0ff" stroke-width="0.8" opacity="0.8"/><path d="M64.0,14 L64.0,94" fill="none" stroke="#120c10" stroke-width="2"/><ellipse cx="44.1" cy="29.6" rx="15.3" ry="10.8" fill="url(#rg5)"/><path d="M80,102 C80,103.4 79.56,104.91 78.78,106.21 C78,107.51 76.76,108.79 75.31,109.78 C73.87,110.77 72.01,111.63 70.12,112.16 C68.24,112.7 66.04,113 64,113 C61.96,113 59.76,112.7 57.88,112.16 C55.99,111.63 54.13,110.77 52.69,109.78 C51.24,108.79 50,107.51 49.22,106.21 C48.44,104.91 48,103.4 48,102 C48,100.6 48.44,99.09 49.22,97.79 C50,96.49 51.24,95.21 52.69,94.22 C54.13,93.23 55.99,92.37 57.88,91.84 C59.76,91.3 61.96,91 64,91 C66.04,91 68.24,91.3 70.12,91.84 C72.01,92.37 73.87,93.23 75.31,94.22 C76.76,95.21 78,96.49 78.78,97.79 C79.56,99.09 80,100.6 80,102 Z" fill="#120c10" stroke="#120c10" stroke-width="2.8" stroke-linejoin="round"/><path d="M80,102 C80,103.4 79.56,104.91 78.78,106.21 C78,107.51 76.76,108.79 75.31,109.78 C73.87,110.77 72.01,111.63 70.12,112.16 C68.24,112.7 66.04,113 64,113 C61.96,113 59.76,112.7 57.88,112.16 C55.99,111.63 54.13,110.77 52.69,109.78 C51.24,108.79 50,107.51 49.22,106.21 C48.44,104.91 48,103.4 48,102 C48,100.6 48.44,99.09 49.22,97.79 C50,96.49 51.24,95.21 52.69,94.22 C54.13,93.23 55.99,92.37 57.88,91.84 C59.76,91.3 61.96,91 64,91 C66.04,91 68.24,91.3 70.12,91.84 C72.01,92.37 73.87,93.23 75.31,94.22 C76.76,95.21 78,96.49 78.78,97.79 C79.56,99.09 80,100.6 80,102 Z" fill="url(#rg6)"/><circle cx="64" cy="99" r="12.48" fill="url(#rg7)"/><circle cx="64" cy="99" r="3.9" fill="#6af0ff" stroke="#120c10" stroke-width="0.5"/><circle cx="62.83" cy="97.83" r="1.36" fill="#ffffff" opacity="0.9"/><circle cx="56.5" cy="101" r="8.32" fill="url(#rg8)"/><circle cx="56.5" cy="101" r="2.6" fill="#6af0ff" stroke="#120c10" stroke-width="0.5"/><circle cx="55.72" cy="100.22" r="0.91" fill="#ffffff" opacity="0.9"/><circle cx="71.5" cy="101" r="8.32" fill="url(#rg9)"/><circle cx="71.5" cy="101" r="2.6" fill="#6af0ff" stroke="#120c10" stroke-width="0.5"/><circle cx="70.72" cy="100.22" r="0.91" fill="#ffffff" opacity="0.9"/><circle cx="52" cy="105.5" r="5.41" fill="url(#rg10)"/><circle cx="52" cy="105.5" r="1.69" fill="#6af0ff" stroke="#120c10" stroke-width="0.5"/><circle cx="51.49" cy="104.99" r="0.59" fill="#ffffff" opacity="0.9"/><circle cx="76" cy="105.5" r="5.41" fill="url(#rg11)"/><circle cx="76" cy="105.5" r="1.69" fill="#6af0ff" stroke="#120c10" stroke-width="0.5"/><circle cx="75.49" cy="104.99" r="0.59" fill="#ffffff" opacity="0.9"/><circle cx="60.5" cy="106" r="4.99" fill="url(#rg12)"/><circle cx="60.5" cy="106" r="1.56" fill="#6af0ff" stroke="#120c10" stroke-width="0.5"/><circle cx="60.03" cy="105.53" r="0.55" fill="#ffffff" opacity="0.9"/><circle cx="67.5" cy="106" r="4.99" fill="url(#rg13)"/><circle cx="67.5" cy="106" r="1.56" fill="#6af0ff" stroke="#120c10" stroke-width="0.5"/><circle cx="67.03" cy="105.53" r="0.55" fill="#ffffff" opacity="0.9"/><path d="M59.0,110 Q64.0,115 69.0,110" fill="none" stroke="#120c10" stroke-width="1.6"/></g></g>
<g transform="translate(128,0) scale(1.0)"><g clip-path="url(#cp14)"><polyline points="35.81,55.74 19.61,46.39 2.66,45.2" fill="none" stroke="#120c10" stroke-width="7.2" stroke-linecap="round" stroke-linejoin="round"/><polyline points="35.81,55.74 19.61,46.39 2.66,45.2" fill="none" stroke="#4e36a8" stroke-width="5" stroke-linecap="round" stroke-linejoin="round"/><polyline points="34.71,54.64 18.51,45.29 1.56,44.1" fill="none" stroke="#b09cff" stroke-width="1.5" stroke-linecap="round" stroke-linejoin="round" opacity="0.7"/><circle cx="2.66" cy="45.2" r="2" fill="#6af0ff" stroke="#120c10" stroke-width="0.5"/><polyline points="92.19,55.74 108.39,46.39 125.34,45.2" fill="none" stroke="#120c10" stroke-width="7.2" stroke-linecap="round" stroke-linejoin="round"/><polyline points="92.19,55.74 108.39,46.39 125.34,45.2" fill="none" stroke="#4e36a8" stroke-width="5" stroke-linecap="round" stroke-linejoin="round"/><polyline points="91.09,54.64 107.29,45.29 124.24,44.1" fill="none" stroke="#b09cff" stroke-width="1.5" stroke-linecap="round" stroke-linejoin="round" opacity="0.7"/><circle cx="125.34" cy="45.2" r="2" fill="#6af0ff" stroke="#120c10" stroke-width="0.5"/><polyline points="34.02,67.05 13.57,71.39 -4.86,66.8" fill="none" stroke="#120c10" stroke-width="7.2" stroke-linecap="round" stroke-linejoin="round"/><polyline points="34.02,67.05 13.57,71.39 -4.86,66.8" fill="none" stroke="#4e36a8" stroke-width="5" stroke-linecap="round" stroke-linejoin="round"/><polyline points="32.92,65.95 12.47,70.29 -5.96,65.7" fill="none" stroke="#b09cff" stroke-width="1.5" stroke-linecap="round" stroke-linejoin="round" opacity="0.7"/><circle cx="-4.86" cy="66.8" r="2" fill="#6af0ff" stroke="#120c10" stroke-width="0.5"/><polyline points="93.98,67.05 114.43,71.39 132.86,66.8" fill="none" stroke="#120c10" stroke-width="7.2" stroke-linecap="round" stroke-linejoin="round"/><polyline points="93.98,67.05 114.43,71.39 132.86,66.8" fill="none" stroke="#4e36a8" stroke-width="5" stroke-linecap="round" stroke-linejoin="round"/><polyline points="92.88,65.95 113.33,70.29 131.76,65.7" fill="none" stroke="#b09cff" stroke-width="1.5" stroke-linecap="round" stroke-linejoin="round" opacity="0.7"/><circle cx="132.86" cy="66.8" r="2" fill="#6af0ff" stroke="#120c10" stroke-width="0.5"/><polyline points="36.59,78.2 17.38,82.99 3.59,94.56" fill="none" stroke="#120c10" stroke-width="7.2" stroke-linecap="round" stroke-linejoin="round"/><polyline points="36.59,78.2 17.38,82.99 3.59,94.56" fill="none" stroke="#4e36a8" stroke-width="5" stroke-linecap="round" stroke-linejoin="round"/><polyline points="35.49,77.1 16.28,81.89 2.49,93.46" fill="none" stroke="#b09cff" stroke-width="1.5" stroke-linecap="round" stroke-linejoin="round" opacity="0.7"/><circle cx="3.59" cy="94.56" r="2" fill="#6af0ff" stroke="#120c10" stroke-width="0.5"/><polyline points="91.41,78.2 110.62,82.99 124.41,94.56" fill="none" stroke="#120c10" stroke-width="7.2" stroke-linecap="round" stroke-linejoin="round"/><polyline points="91.41,78.2 110.62,82.99 124.41,94.56" fill="none" stroke="#4e36a8" stroke-width="5" stroke-linecap="round" stroke-linejoin="round"/><polyline points="90.31,77.1 109.52,81.89 123.31,93.46" fill="none" stroke="#b09cff" stroke-width="1.5" stroke-linecap="round" stroke-linejoin="round" opacity="0.7"/><circle cx="124.41" cy="94.56" r="2" fill="#6af0ff" stroke="#120c10" stroke-width="0.5"/><polyline points="43.16,87.58 33.93,101.26 20.94,108.76" fill="none" stroke="#120c10" stroke-width="7.2" stroke-linecap="round" stroke-linejoin="round"/><polyline points="43.16,87.58 33.93,101.26 20.94,108.76" fill="none" stroke="#4e36a8" stroke-width="5" stroke-linecap="round" stroke-linejoin="round"/><polyline points="42.06,86.48 32.83,100.16 19.84,107.66" fill="none" stroke="#b09cff" stroke-width="1.5" stroke-linecap="round" stroke-linejoin="round" opacity="0.7"/><circle cx="20.94" cy="108.76" r="2" fill="#6af0ff" stroke="#120c10" stroke-width="0.5"/><polyline points="84.84,87.58 94.07,101.26 107.06,108.76" fill="none" stroke="#120c10" stroke-width="7.2" stroke-linecap="round" stroke-linejoin="round"/><polyline points="84.84,87.58 94.07,101.26 107.06,108.76" fill="none" stroke="#4e36a8" stroke-width="5" stroke-linecap="round" stroke-linejoin="round"/><polyline points="83.74,86.48 92.97,100.16 105.96,107.66" fill="none" stroke="#b09cff" stroke-width="1.5" stroke-linecap="round" stroke-linejoin="round" opacity="0.7"/><circle cx="107.06" cy="108.76" r="2" fill="#6af0ff" stroke="#120c10" stroke-width="0.5"/><circle cx="64" cy="56" r="56" fill="url(#rg15)"/><path d="M69,54 C69,58.46 69.31,63.34 68.55,67.37 C67.79,71.4 65.88,74.76 64.44,78.19 C63.01,81.63 61.67,85.15 59.93,87.98 C58.19,90.8 56.16,93.95 54,95.14 C51.85,96.34 49.3,95.36 47,95.16 C44.7,94.96 42.42,94.97 40.2,93.94 C37.98,92.92 35.45,91.62 33.68,89 C31.91,86.37 30.82,81.86 29.56,78.19 C28.29,74.52 26.95,71.01 26.08,66.98 C25.21,62.95 24.27,58.28 24.34,54 C24.41,49.72 25.68,45.4 26.5,41.28 C27.31,37.17 28,33.03 29.2,29.31 C30.4,25.6 31.82,21.41 33.68,19 C35.54,16.59 38.12,16.02 40.34,14.85 C42.56,13.69 44.72,12.33 47,12 C49.28,11.67 51.89,11.41 54,12.86 C56.11,14.31 57.87,17.96 59.67,20.7 C61.47,23.44 63.32,25.99 64.8,29.31 C66.28,32.63 67.85,36.52 68.55,40.63 C69.25,44.75 69,49.54 69,54 Z" fill="#120c10" stroke="#120c10" stroke-width="2.8" stroke-linejoin="round"/><path d="M69,54 C69,58.46 69.31,63.34 68.55,67.37 C67.79,71.4 65.88,74.76 64.44,78.19 C63.01,81.63 61.67,85.15 59.93,87.98 C58.19,90.8 56.16,93.95 54,95.14 C51.85,96.34 49.3,95.36 47,95.16 C44.7,94.96 42.42,94.97 40.2,93.94 C37.98,92.92 35.45,91.62 33.68,89 C31.91,86.37 30.82,81.86 29.56,78.19 C28.29,74.52 26.95,71.01 26.08,66.98 C25.21,62.95 24.27,58.28 24.34,54 C24.41,49.72 25.68,45.4 26.5,41.28 C27.31,37.17 28,33.03 29.2,29.31 C30.4,25.6 31.82,21.41 33.68,19 C35.54,16.59 38.12,16.02 40.34,14.85 C42.56,13.69 44.72,12.33 47,12 C49.28,11.67 51.89,11.41 54,12.86 C56.11,14.31 57.87,17.96 59.67,20.7 C61.47,23.44 63.32,25.99 64.8,29.31 C66.28,32.63 67.85,36.52 68.55,40.63 C69.25,44.75 69,49.54 69,54 Z" fill="url(#rg16)"/><path d="M59.0,26 Q50.5,31 42.0,24 Q39.0,31 46.0,34" fill="none" stroke="#170c36" stroke-width="2.2" opacity="0.9"/><path d="M59.0,26 Q50.5,31 42.0,24 Q39.0,31 46.0,34" fill="none" stroke="#6af0ff" stroke-width="0.8" opacity="0.8"/><path d="M59.0,40 Q48.5,35 38.0,38 Q35.0,45 42.0,48" fill="none" stroke="#170c36" stroke-width="2.2" opacity="0.9"/><path d="M59.0,40 Q48.5,35 38.0,38 Q35.0,45 42.0,48" fill="none" stroke="#6af0ff" stroke-width="0.8" opacity="0.8"/><path d="M59.0,54 Q46.5,59 34.0,52 Q31.0,59 38.0,62" fill="none" stroke="#170c36" stroke-width="2.2" opacity="0.9"/><path d="M59.0,54 Q46.5,59 34.0,52 Q31.0,59 38.0,62" fill="none" stroke="#6af0ff" stroke-width="0.8" opacity="0.8"/><path d="M59.0,68 Q48.5,63 38.0,66 Q35.0,73 42.0,76" fill="none" stroke="#170c36" stroke-width="2.2" opacity="0.9"/><path d="M59.0,68 Q48.5,63 38.0,66 Q35.0,73 42.0,76" fill="none" stroke="#6af0ff" stroke-width="0.8" opacity="0.8"/><path d="M59.0,82 Q50.5,87 42.0,80 Q39.0,87 46.0,90" fill="none" stroke="#170c36" stroke-width="2.2" opacity="0.9"/><path d="M59.0,82 Q50.5,87 42.0,80 Q39.0,87 46.0,90" fill="none" stroke="#6af0ff" stroke-width="0.8" opacity="0.8"/><path d="M103,54 C103,58.46 103.31,63.34 102.55,67.37 C101.79,71.4 99.88,74.76 98.44,78.19 C97.01,81.63 95.67,85.15 93.93,87.98 C92.19,90.8 90.16,93.95 88,95.14 C85.85,96.34 83.3,95.36 81,95.16 C78.7,94.96 76.42,94.97 74.2,93.94 C71.98,92.92 69.45,91.62 67.68,89 C65.91,86.37 64.82,81.86 63.56,78.19 C62.29,74.52 60.95,71.01 60.08,66.98 C59.21,62.95 58.27,58.28 58.34,54 C58.41,49.72 59.68,45.4 60.5,41.28 C61.31,37.17 62,33.03 63.2,29.31 C64.4,25.6 65.82,21.41 67.68,19 C69.54,16.59 72.12,16.02 74.34,14.85 C76.56,13.69 78.72,12.33 81,12 C83.28,11.67 85.89,11.41 88,12.86 C90.11,14.31 91.87,17.96 93.67,20.7 C95.47,23.44 97.32,25.99 98.8,29.31 C100.28,32.63 101.85,36.52 102.55,40.63 C103.25,44.75 103,49.54 103,54 Z" fill="#120c10" stroke="#120c10" stroke-width="2.8" stroke-linejoin="round"/><path d="M103,54 C103,58.46 103.31,63.34 102.55,67.37 C101.79,71.4 99.88,74.76 98.44,78.19 C97.01,81.63 95.67,85.15 93.93,87.98 C92.19,90.8 90.16,93.95 88,95.14 C85.85,96.34 83.3,95.36 81,95.16 C78.7,94.96 76.42,94.97 74.2,93.94 C71.98,92.92 69.45,91.62 67.68,89 C65.91,86.37 64.82,81.86 63.56,78.19 C62.29,74.52 60.95,71.01 60.08,66.98 C59.21,62.95 58.27,58.28 58.34,54 C58.41,49.72 59.68,45.4 60.5,41.28 C61.31,37.17 62,33.03 63.2,29.31 C64.4,25.6 65.82,21.41 67.68,19 C69.54,16.59 72.12,16.02 74.34,14.85 C76.56,13.69 78.72,12.33 81,12 C83.28,11.67 85.89,11.41 88,12.86 C90.11,14.31 91.87,17.96 93.67,20.7 C95.47,23.44 97.32,25.99 98.8,29.31 C100.28,32.63 101.85,36.52 102.55,40.63 C103.25,44.75 103,49.54 103,54 Z" fill="url(#rg17)"/><path d="M69.0,26 Q77.5,31 86.0,24 Q89.0,31 82.0,34" fill="none" stroke="#170c36" stroke-width="2.2" opacity="0.9"/><path d="M69.0,26 Q77.5,31 86.0,24 Q89.0,31 82.0,34" fill="none" stroke="#6af0ff" stroke-width="0.8" opacity="0.8"/><path d="M69.0,40 Q79.5,35 90.0,38 Q93.0,45 86.0,48" fill="none" stroke="#170c36" stroke-width="2.2" opacity="0.9"/><path d="M69.0,40 Q79.5,35 90.0,38 Q93.0,45 86.0,48" fill="none" stroke="#6af0ff" stroke-width="0.8" opacity="0.8"/><path d="M69.0,54 Q81.5,59 94.0,52 Q97.0,59 90.0,62" fill="none" stroke="#170c36" stroke-width="2.2" opacity="0.9"/><path d="M69.0,54 Q81.5,59 94.0,52 Q97.0,59 90.0,62" fill="none" stroke="#6af0ff" stroke-width="0.8" opacity="0.8"/><path d="M69.0,68 Q79.5,63 90.0,66 Q93.0,73 86.0,76" fill="none" stroke="#170c36" stroke-width="2.2" opacity="0.9"/><path d="M69.0,68 Q79.5,63 90.0,66 Q93.0,73 86.0,76" fill="none" stroke="#6af0ff" stroke-width="0.8" opacity="0.8"/><path d="M69.0,82 Q77.5,87 86.0,80 Q89.0,87 82.0,90" fill="none" stroke="#170c36" stroke-width="2.2" opacity="0.9"/><path d="M69.0,82 Q77.5,87 86.0,80 Q89.0,87 82.0,90" fill="none" stroke="#6af0ff" stroke-width="0.8" opacity="0.8"/><path d="M64.0,14 L64.0,94" fill="none" stroke="#120c10" stroke-width="2"/><ellipse cx="44.1" cy="29.6" rx="15.3" ry="10.8" fill="url(#rg18)"/><path d="M80,102 C80,103.4 79.56,104.91 78.78,106.21 C78,107.51 76.76,108.79 75.31,109.78 C73.87,110.77 72.01,111.63 70.12,112.16 C68.24,112.7 66.04,113 64,113 C61.96,113 59.76,112.7 57.88,112.16 C55.99,111.63 54.13,110.77 52.69,109.78 C51.24,108.79 50,107.51 49.22,106.21 C48.44,104.91 48,103.4 48,102 C48,100.6 48.44,99.09 49.22,97.79 C50,96.49 51.24,95.21 52.69,94.22 C54.13,93.23 55.99,92.37 57.88,91.84 C59.76,91.3 61.96,91 64,91 C66.04,91 68.24,91.3 70.12,91.84 C72.01,92.37 73.87,93.23 75.31,94.22 C76.76,95.21 78,96.49 78.78,97.79 C79.56,99.09 80,100.6 80,102 Z" fill="#120c10" stroke="#120c10" stroke-width="2.8" stroke-linejoin="round"/><path d="M80,102 C80,103.4 79.56,104.91 78.78,106.21 C78,107.51 76.76,108.79 75.31,109.78 C73.87,110.77 72.01,111.63 70.12,112.16 C68.24,112.7 66.04,113 64,113 C61.96,113 59.76,112.7 57.88,112.16 C55.99,111.63 54.13,110.77 52.69,109.78 C51.24,108.79 50,107.51 49.22,106.21 C48.44,104.91 48,103.4 48,102 C48,100.6 48.44,99.09 49.22,97.79 C50,96.49 51.24,95.21 52.69,94.22 C54.13,93.23 55.99,92.37 57.88,91.84 C59.76,91.3 61.96,91 64,91 C66.04,91 68.24,91.3 70.12,91.84 C72.01,92.37 73.87,93.23 75.31,94.22 C76.76,95.21 78,96.49 78.78,97.79 C79.56,99.09 80,100.6 80,102 Z" fill="url(#rg19)"/><circle cx="64" cy="99" r="12.48" fill="url(#rg20)"/><circle cx="64" cy="99" r="3.9" fill="#6af0ff" stroke="#120c10" stroke-width="0.5"/><circle cx="62.83" cy="97.83" r="1.36" fill="#ffffff" opacity="0.9"/><circle cx="56.5" cy="101" r="8.32" fill="url(#rg21)"/><circle cx="56.5" cy="101" r="2.6" fill="#6af0ff" stroke="#120c10" stroke-width="0.5"/><circle cx="55.72" cy="100.22" r="0.91" fill="#ffffff" opacity="0.9"/><circle cx="71.5" cy="101" r="8.32" fill="url(#rg22)"/><circle cx="71.5" cy="101" r="2.6" fill="#6af0ff" stroke="#120c10" stroke-width="0.5"/><circle cx="70.72" cy="100.22" r="0.91" fill="#ffffff" opacity="0.9"/><circle cx="52" cy="105.5" r="5.41" fill="url(#rg23)"/><circle cx="52" cy="105.5" r="1.69" fill="#6af0ff" stroke="#120c10" stroke-width="0.5"/><circle cx="51.49" cy="104.99" r="0.59" fill="#ffffff" opacity="0.9"/><circle cx="76" cy="105.5" r="5.41" fill="url(#rg24)"/><circle cx="76" cy="105.5" r="1.69" fill="#6af0ff" stroke="#120c10" stroke-width="0.5"/><circle cx="75.49" cy="104.99" r="0.59" fill="#ffffff" opacity="0.9"/><circle cx="60.5" cy="106" r="4.99" fill="url(#rg25)"/><circle cx="60.5" cy="106" r="1.56" fill="#6af0ff" stroke="#120c10" stroke-width="0.5"/><circle cx="60.03" cy="105.53" r="0.55" fill="#ffffff" opacity="0.9"/><circle cx="67.5" cy="106" r="4.99" fill="url(#rg26)"/><circle cx="67.5" cy="106" r="1.56" fill="#6af0ff" stroke="#120c10" stroke-width="0.5"/><circle cx="67.03" cy="105.53" r="0.55" fill="#ffffff" opacity="0.9"/><path d="M59.0,110 Q64.0,115 69.0,110" fill="none" stroke="#120c10" stroke-width="1.6"/></g></g>
</svg>
