<svg xmlns="http://www.w3.org/2000/svg" width="416" height="208" viewBox="0 0 104 52">
<defs><clipPath id="cp1"><rect x="0.5" y="0.5" width="51.0" height="51.0"/></clipPath><radialGradient id="rg2" gradientUnits="objectBoundingBox" cx="0.35" cy="0.3" r="0.85" fx="0.3" fy="0.25"><stop offset="0" stop-color="#a8d4ff" stop-opacity="1"/><stop offset="0.45" stop-color="#4a86c8" stop-opacity="1"/><stop offset="1" stop-color="#122a4a" stop-opacity="1"/></radialGradient><radialGradient id="rg3" gradientUnits="objectBoundingBox" cx="0.5" cy="0.5" r="0.5"><stop offset="0" stop-color="#7fe0ff" stop-opacity="0.7"/><stop offset="0.35" stop-color="#7fe0ff" stop-opacity="0.35"/><stop offset="1" stop-color="#7fe0ff" stop-opacity="0"/></radialGradient><radialGradient id="rg4" gradientUnits="objectBoundingBox" cx="0.4" cy="0.35" r="0.5"><stop offset="0" stop-color="#ffffff" stop-opacity="1"/><stop offset="0.45" stop-color="#7fe0ff" stop-opacity="1"/><stop offset="1" stop-color="#1a5a9a" stop-opacity="1"/></radialGradient><radialGradient id="rg5" gradientUnits="objectBoundingBox" cx="0.35" cy="0.3" r="0.85" fx="0.3" fy="0.25"><stop offset="0" stop-color="#4a86c8" stop-opacity="1"/><stop offset="0.45" stop-color="#122a4a" stop-opacity="1"/><stop offset="1" stop-color="#122a4a" stop-opacity="1"/></radialGradient><radialGradient id="rg6" gradientUnits="objectBoundingBox" cx="0.5" cy="0.5" r="0.5"><stop offset="0" stop-color="#7fe0ff" stop-opacity="0.55"/><stop offset="0.35" stop-color="#7fe0ff" stop-opacity="0.28"/><stop offset="1" stop-color="#7fe0ff" stop-opacity="0"/></radialGradient><radialGradient id="rg7" gradientUnits="objectBoundingBox" cx="0.5" cy="0.5" r="0.5"><stop offset="0" stop-color="#7fe0ff" stop-opacity="0.55"/><stop offset="0.35" stop-color="#7fe0ff" stop-opacity="0.28"/><stop offset="1" stop-color="#7fe0ff" stop-opacity="0"/></radialGradient><clipPath id="cp8"><rect x="0.5" y="0.5" width="51.0" height="51.0"/></clipPath><radialGradient id="rg9" gradientUnits="objectBoundingBox" cx="0.35" cy="0.3" r="0.85" fx="0.3" fy="0.25"><stop offset="0" stop-color="#a8d4ff" stop-opacity="1"/><stop offset="0.45" stop-color="#4a86c8" stop-opacity="1"/><stop offset="1" stop-color="#122a4a" stop-opacity="1"/></radialGradient><radialGradient id="rg10" gradientUnits="objectBoundingBox" cx="0.5" cy="0.5" r="0.5"><stop offset="0" stop-color="#7fe0ff" stop-opacity="0.7"/><stop offset="0.35" stop-color="#7fe0ff" stop-opacity="0.35"/><stop offset="1" stop-color="#7fe0ff" stop-opacity="0"/></radialGradient><radialGradient id="rg11" gradientUnits="objectBoundingBox" cx="0.4" cy="0.35" r="0.5"><stop offset="0" stop-color="#ffffff" stop-opacity="1"/><stop offset="0.45" stop-color="#7fe0ff" stop-opacity="1"/><stop offset="1" stop-color="#1a5a9a" stop-opacity="1"/></radialGradient><radialGradient id="rg12" gradientUnits="objectBoundingBox" cx="0.35" cy="0.3" r="0.85" fx="0.3" fy="0.25"><stop offset="0" stop-color="#4a86c8" stop-opacity="1"/><stop offset="0.45" stop-color="#122a4a" stop-opacity="1"/><stop offset="1" stop-color="#122a4a" stop-opacity="1"/></radialGradient><radialGradient id="rg13" gradientUnits="objectBoundingBox" cx="0.5" cy="0.5" r="0.5"><stop offset="0" stop-color="#7fe0ff" stop-opacity="0.55"/><stop offset="0.35" stop-color="#7fe0ff" stop-opacity="0.28"/><stop offset="1" stop-color="#7fe0ff" stop-opacity="0"/></radialGradient><radialGradient id="rg14" gradientUnits="objectBoundingBox" cx="0.5" cy="0.5" r="0.5"><stop offset="0" stop-color="#7fe0ff" stop-opacity="0.55"/><stop offset="0.35" stop-color="#7fe0ff" stop-opacity="0.28"/><stop offset="1" stop-color="#7fe0ff" stop-opacity="0"/></radialGradient></defs>
<g transform="translate(0,0) scale(1.0)"><g clip-path="url(#cp1)"><polyline points="18,24 13.05,19.05 6.47,16.66" fill="none" stroke="#120c10" stroke-width="4.6" stroke-linecap="round" stroke-linejoin="round"/><polyline points="18,24 13.05,19.05 6.47,16.66" fill="none" stroke="#4a86c8" stroke-width="2.4" stroke-linecap="round" stroke-linejoin="round"/><polyline points="17.47,23.47 12.52,18.52 5.94,16.13" fill="none" stroke="#a8d4ff" stroke-width="0.72" stroke-linecap="round" stroke-linejoin="round" opacity="0.7"/><circle cx="13.05" cy="19.05" r="1.49" fill="#4a86c8" stroke="#120c10" stroke-width="0.6"/><circle cx="6.47" cy="16.66" r="1.08" fill="#120c10"/><polyline points="34,24 40.62,21.72 47.58,22.45" fill="none" stroke="#120c10" stroke-width="4.6" stroke-linecap="round" stroke-linejoin="round"/><polyline points="34,24 40.62,21.72 47.58,22.45" fill="none" stroke="#4a86c8" stroke-width="2.4" stroke-linecap="round" stroke-linejoin="round"/><polyline points="33.47,23.47 40.09,21.19 47.05,21.92" fill="none" stroke="#a8d4ff" stroke-width="0.72" stroke-linecap="round" stroke-linejoin="round" opacity="0.7"/><circle cx="40.62" cy="21.72" r="1.49" fill="#4a86c8" stroke="#120c10" stroke-width="0.6"/><circle cx="47.58" cy="22.45" r="1.08" fill="#120c10"/><polyline points="17.5,28 10.63,29.34 3.64,29.7" fill="none" stroke="#120c10" stroke-width="4.6" stroke-linecap="round" stroke-linejoin="round"/><polyline points="17.5,28 10.63,29.34 3.64,29.7" fill="none" stroke="#4a86c8" stroke-width="2.4" stroke-linecap="round" stroke-linejoin="round"/><polyline points="16.97,27.47 10.1,28.81 3.11,29.17" fill="none" stroke="#a8d4ff" stroke-width="0.72" stroke-linecap="round" stroke-linejoin="round" opacity="0.7"/><circle cx="10.63" cy="29.34" r="1.49" fill="#4a86c8" stroke="#120c10" stroke-width="0.6"/><circle cx="3.64" cy="29.7" r="1.08" fill="#120c10"/><polyline points="34.5,28 41.26,26.19 47.71,23.45" fill="none" stroke="#120c10" stroke-width="4.6" stroke-linecap="round" stroke-linejoin="round"/><polyline points="34.5,28 41.26,26.19 47.71,23.45" fill="none" stroke="#4a86c8" stroke-width="2.4" stroke-linecap="round" stroke-linejoin="round"/><polyline points="33.97,27.47 40.73,25.66 47.18,22.93" fill="none" stroke="#a8d4ff" stroke-width="0.72" stroke-linecap="round" stroke-linejoin="round" opacity="0.7"/><circle cx="41.26" cy="26.19" r="1.49" fill="#4a86c8" stroke="#120c10" stroke-width="0.6"/><circle cx="47.71" cy="23.45" r="1.08" fill="#120c10"/><polyline points="18,32 11.31,34.05 4.49,32.47" fill="none" stroke="#120c10" stroke-width="4.6" stroke-linecap="round" stroke-linejoin="round"/><polyline points="18,32 11.31,34.05 4.49,32.47" fill="none" stroke="#4a86c8" stroke-width="2.4" stroke-linecap="round" stroke-linejoin="round"/><polyline points="17.47,31.47 10.78,33.52 3.96,31.94" fill="none" stroke="#a8d4ff" stroke-width="0.72" stroke-linecap="round" stroke-linejoin="round" opacity="0.7"/><circle cx="11.31" cy="34.05" r="1.49" fill="#4a86c8" stroke="#120c10" stroke-width="0.6"/><circle cx="4.49" cy="32.47" r="1.08" fill="#120c10"/><polyline points="34,32 39.12,36.77 45.94,38.35" fill="none" stroke="#120c10" stroke-width="4.6" stroke-linecap="round" stroke-linejoin="round"/><polyline points="34,32 39.12,36.77 45.94,38.35" fill="none" stroke="#4a86c8" stroke-width="2.4" stroke-linecap="round" stroke-linejoin="round"/><polyline points="33.47,31.47 38.59,36.25 45.41,37.82" fill="none" stroke="#a8d4ff" stroke-width="0.72" stroke-linecap="round" stroke-linejoin="round" opacity="0.7"/><circle cx="39.12" cy="36.77" r="1.49" fill="#4a86c8" stroke="#120c10" stroke-width="0.6"/><circle cx="45.94" cy="38.35" r="1.08" fill="#120c10"/><path d="M39,22 C39,23.54 38.72,25.17 38.22,26.62 C37.71,28.06 36.91,29.5 35.96,30.68 C35.01,31.86 33.78,32.92 32.5,33.69 C31.22,34.46 29.72,35.03 28.26,35.29 C26.8,35.56 25.2,35.56 23.74,35.29 C22.28,35.03 20.78,34.46 19.5,33.69 C18.22,32.92 16.99,31.86 16.04,30.68 C15.09,29.5 14.29,28.06 13.78,26.62 C13.28,25.17 13,23.54 13,22 C13,20.46 13.28,18.83 13.78,17.38 C14.29,15.94 15.09,14.5 16.04,13.32 C16.99,12.14 18.22,11.08 19.5,10.31 C20.78,9.54 22.28,8.97 23.74,8.71 C25.2,8.44 26.8,8.44 28.26,8.71 C29.72,8.97 31.22,9.54 32.5,10.31 C33.78,11.08 35.01,12.14 35.96,13.32 C36.91,14.5 37.71,15.94 38.22,17.38 C38.72,18.83 39,20.46 39,22 Z" fill="#120c10" stroke="#120c10" stroke-width="2.8" stroke-linejoin="round"/><path d="M39,22 C39,23.54 38.72,25.17 38.22,26.62 C37.71,28.06 36.91,29.5 35.96,30.68 C35.01,31.86 33.78,32.92 32.5,33.69 C31.22,34.46 29.72,35.03 28.26,35.29 C26.8,35.56 25.2,35.56 23.74,35.29 C22.28,35.03 20.78,34.46 19.5,33.69 C18.22,32.92 16.99,31.86 16.04,30.68 C15.09,29.5 14.29,28.06 13.78,26.62 C13.28,25.17 13,23.54 13,22 C13,20.46 13.28,18.83 13.78,17.38 C14.29,15.94 15.09,14.5 16.04,13.32 C16.99,12.14 18.22,11.08 19.5,10.31 C20.78,9.54 22.28,8.97 23.74,8.71 C25.2,8.44 26.8,8.44 28.26,8.71 C29.72,8.97 31.22,9.54 32.5,10.31 C33.78,11.08 35.01,12.14 35.96,13.32 C36.91,14.5 37.71,15.94 38.22,17.38 C38.72,18.83 39,20.46 39,22 Z" fill="url(#rg2)"/><path d="M22.0,11 Q14.0,15 15.0,30" fill="none" stroke="#122a4a" stroke-width="1.3" opacity="0.9"/><path d="M21.4,12 Q14.6,16 15.6,29" fill="none" stroke="#a8d4ff" stroke-width="0.6" opacity="0.5"/><path d="M30.0,11 Q38.0,15 37.0,30" fill="none" stroke="#122a4a" stroke-width="1.3" opacity="0.9"/><path d="M30.6,12 Q37.4,16 36.4,29" fill="none" stroke="#a8d4ff" stroke-width="0.6" opacity="0.5"/><circle cx="26" cy="19" r="14" fill="url(#rg3)"/><circle cx="26" cy="19" r="7.5" fill="none" stroke="#7fe0ff" stroke-width="1.6" opacity="0.9"/><circle cx="26" cy="19" r="5" fill="url(#rg4)" stroke="#120c10" stroke-width="0.9"/><circle cx="32.5" cy="22.75" r="1.2" fill="#a8d4ff" stroke="#120c10" stroke-width="0.5"/><circle cx="19.5" cy="22.75" r="1.2" fill="#a8d4ff" stroke="#120c10" stroke-width="0.5"/><circle cx="26" cy="11.5" r="1.2" fill="#a8d4ff" stroke="#120c10" stroke-width="0.5"/><path d="M33,37 C33,37.83 32.65,38.78 32.06,39.5 C31.48,40.22 30.51,40.91 29.5,41.33 C28.49,41.75 27.17,42 26,42 C24.83,42 23.51,41.75 22.5,41.33 C21.49,40.91 20.52,40.22 19.94,39.5 C19.35,38.78 19,37.83 19,37 C19,36.17 19.35,35.22 19.94,34.5 C20.52,33.78 21.49,33.09 22.5,32.67 C23.51,32.25 24.83,32 26,32 C27.17,32 28.49,32.25 29.5,32.67 C30.51,33.09 31.48,33.78 32.06,34.5 C32.65,35.22 33,36.17 33,37 Z" fill="#120c10" stroke="#120c10" stroke-width="2.8" stroke-linejoin="round"/><path d="M33,37 C33,37.83 32.65,38.78 32.06,39.5 C31.48,40.22 30.51,40.91 29.5,41.33 C28.49,41.75 27.17,42 26,42 C24.83,42 23.51,41.75 22.5,41.33 C21.49,40.91 20.52,40.22 19.94,39.5 C19.35,38.78 19,37.83 19,37 C19,36.17 19.35,35.22 19.94,34.5 C20.52,33.78 21.49,33.09 22.5,32.67 C23.51,32.25 24.83,32 26,32 C27.17,32 28.49,32.25 29.5,32.67 C30.51,33.09 31.48,33.78 32.06,34.5 C32.65,35.22 33,36.17 33,37 Z" fill="url(#rg5)"/><path d="M19.0,38 Q26.0,44 33.0,38 Q26.0,41 19.0,38 Z" fill="#120c10" stroke="#120c10" stroke-width="1.4" stroke-linejoin="round"/><path d="M19.0,38 Q26.0,44 33.0,38 Q26.0,41 19.0,38 Z" fill="#a8d4ff"/><circle cx="23" cy="37.5" r="4.58" fill="url(#rg6)"/><circle cx="23" cy="37.5" r="1.43" fill="#7fe0ff" stroke="#120c10" stroke-width="0.5"/><circle cx="22.57" cy="37.07" r="0.5" fill="#ffffff" opacity="0.9"/><circle cx="29" cy="37.5" r="4.58" fill="url(#rg7)"/><circle cx="29" cy="37.5" r="1.43" fill="#7fe0ff" stroke="#120c10" stroke-width="0.5"/><circle cx="28.57" cy="37.07" r="0.5" fill="#ffffff" opacity="0.9"/></g></g>
<g transform="translate(52,0) scale(1.0)"><g clip-path="url(#cp8)"><polyline points="18,24 11.38,21.72 4.42,22.45" fill="none" stroke="#120c10" stroke-width="4.6" stroke-linecap="round" stroke-linejoin="round"/><polyline points="18,24 11.38,21.72 4.42,22.45" fill="none" stroke="#4a86c8" stroke-width="2.4" stroke-linecap="round" stroke-linejoin="round"/><polyline points="17.47,23.47 10.85,21.19 3.89,21.92" fill="none" stroke="#a8d4ff" stroke-width="0.72" stroke-linecap="round" stroke-linejoin="round" opacity="0.7"/><circle cx="11.38" cy="21.72" r="1.49" fill="#4a86c8" stroke="#120c10" stroke-width="0.6"/><circle cx="4.42" cy="22.45" r="1.08" fill="#120c10"/><polyline points="34,24 38.95,19.05 45.53,16.66" fill="none" stroke="#120c10" stroke-width="4.6" stroke-linecap="round" stroke-linejoin="round"/><polyline points="34,24 38.95,19.05 45.53,16.66" fill="none" stroke="#4a86c8" stroke-width="2.4" stroke-linecap="round" stroke-linejoin="round"/><polyline points="33.47,23.47 38.42,18.52 45,16.13" fill="none" stroke="#a8d4ff" stroke-width="0.72" stroke-linecap="round" stroke-linejoin="round" opacity="0.7"/><circle cx="38.95" cy="19.05" r="1.49" fill="#4a86c8" stroke="#120c10" stroke-width="0.6"/><circle cx="45.53" cy="16.66" r="1.08" fill="#120c10"/><polyline points="17.5,28 10.74,26.19 4.29,23.45" fill="none" stroke="#120c10" stroke-width="4.6" stroke-linecap="round" stroke-linejoin="round"/><polyline points="17.5,28 10.74,26.19 4.29,23.45" fill="none" stroke="#4a86c8" stroke-width="2.4" stroke-linecap="round" stroke-linejoin="round"/><polyline points="16.97,27.47 10.21,25.66 3.77,22.93" fill="none" stroke="#a8d4ff" stroke-width="0.72" stroke-linecap="round" stroke-linejoin="round" opacity="0.7"/><circle cx="10.74" cy="26.19" r="1.49" fill="#4a86c8" stroke="#120c10" stroke-width="0.6"/><circle cx="4.29" cy="23.45" r="1.08" fill="#120c10"/><polyline points="34.5,28 41.37,29.34 48.36,29.7" fill="none" stroke="#120c10" stroke-width="4.6" stroke-linecap="round" stroke-linejoin="round"/><polyline points="34.5,28 41.37,29.34 48.36,29.7" fill="none" stroke="#4a86c8" stroke-width="2.4" stroke-linecap="round" stroke-linejoin="round"/><polyline points="33.97,27.47 40.84,28.81 47.83,29.17" fill="none" stroke="#a8d4ff" stroke-width="0.72" stroke-linecap="round" stroke-linejoin="round" opacity="0.7"/><circle cx="41.37" cy="29.34" r="1.49" fill="#4a86c8" stroke="#120c10" stroke-width="0.6"/><circle cx="48.36" cy="29.7" r="1.08" fill="#120c10"/><polyline points="18,32 12.88,36.77 6.06,38.35" fill="none" stroke="#120c10" stroke-width="4.6" stroke-linecap="round" stroke-linejoin="round"/><polyline points="18,32 12.88,36.77 6.06,38.35" fill="none" stroke="#4a86c8" stroke-width="2.4" stroke-linecap="round" stroke-linejoin="round"/><polyline points="17.47,31.47 12.35,36.25 5.53,37.82" fill="none" stroke="#a8d4ff" stroke-width="0.72" stroke-linecap="round" stroke-linejoin="round" opacity="0.7"/><circle cx="12.88" cy="36.77" r="1.49" fill="#4a86c8" stroke="#120c10" stroke-width="0.6"/><circle cx="6.06" cy="38.35" r="1.08" fill="#120c10"/><polyline points="34,32 40.69,34.05 47.51,32.47" fill="none" stroke="#120c10" stroke-width="4.6" stroke-linecap="round" stroke-linejoin="round"/><polyline points="34,32 40.69,34.05 47.51,32.47" fill="none" stroke="#4a86c8" stroke-width="2.4" stroke-linecap="round" stroke-linejoin="round"/><polyline points="33.47,31.47 40.17,33.52 46.99,31.94" fill="none" stroke="#a8d4ff" stroke-width="0.72" stroke-linecap="round" stroke-linejoin="round" opacity="0.7"/><circle cx="40.69" cy="34.05" r="1.49" fill="#4a86c8" stroke="#120c10" stroke-width="0.6"/><circle cx="47.51" cy="32.47" r="1.08" fill="#120c10"/><path d="M39,22 C39,23.54 38.72,25.17 38.22,26.62 C37.71,28.06 36.91,29.5 35.96,30.68 C35.01,31.86 33.78,32.92 32.5,33.69 C31.22,34.46 29.72,35.03 28.26,35.29 C26.8,35.56 25.2,35.56 23.74,35.29 C22.28,35.03 20.78,34.46 19.5,33.69 C18.22,32.92 16.99,31.86 16.04,30.68 C15.09,29.5 14.29,28.06 13.78,26.62 C13.28,25.17 13,23.54 13,22 C13,20.46 13.28,18.83 13.78,17.38 C14.29,15.94 15.09,14.5 16.04,13.32 C16.99,12.14 18.22,11.08 19.5,10.31 C20.78,9.54 22.28,8.97 23.74,8.71 C25.2,8.44 26.8,8.44 28.26,8.71 C29.72,8.97 31.22,9.54 32.5,10.31 C33.78,11.08 35.01,12.14 35.96,13.32 C36.91,14.5 37.71,15.94 38.22,17.38 C38.72,18.83 39,20.46 39,22 Z" fill="#120c10" stroke="#120c10" stroke-width="2.8" stroke-linejoin="round"/><path d="M39,22 C39,23.54 38.72,25.17 38.22,26.62 C37.71,28.06 36.91,29.5 35.96,30.68 C35.01,31.86 33.78,32.92 32.5,33.69 C31.22,34.46 29.72,35.03 28.26,35.29 C26.8,35.56 25.2,35.56 23.74,35.29 C22.28,35.03 20.78,34.46 19.5,33.69 C18.22,32.92 16.99,31.86 16.04,30.68 C15.09,29.5 14.29,28.06 13.78,26.62 C13.28,25.17 13,23.54 13,22 C13,20.46 13.28,18.83 13.78,17.38 C14.29,15.94 15.09,14.5 16.04,13.32 C16.99,12.14 18.22,11.08 19.5,10.31 C20.78,9.54 22.28,8.97 23.74,8.71 C25.2,8.44 26.8,8.44 28.26,8.71 C29.72,8.97 31.22,9.54 32.5,10.31 C33.78,11.08 35.01,12.14 35.96,13.32 C36.91,14.5 37.71,15.94 38.22,17.38 C38.72,18.83 39,20.46 39,22 Z" fill="url(#rg9)"/><path d="M22.0,11 Q14.0,15 15.0,30" fill="none" stroke="#122a4a" stroke-width="1.3" opacity="0.9"/><path d="M21.4,12 Q14.6,16 15.6,29" fill="none" stroke="#a8d4ff" stroke-width="0.6" opacity="0.5"/><path d="M30.0,11 Q38.0,15 37.0,30" fill="none" stroke="#122a4a" stroke-width="1.3" opacity="0.9"/><path d="M30.6,12 Q37.4,16 36.4,29" fill="none" stroke="#a8d4ff" stroke-width="0.6" opacity="0.5"/><circle cx="26" cy="19" r="14" fill="url(#rg10)"/><circle cx="26" cy="19" r="7.5" fill="none" stroke="#7fe0ff" stroke-width="1.6" opacity="0.9"/><circle cx="26" cy="19" r="5" fill="url(#rg11)" stroke="#120c10" stroke-width="0.9"/><circle cx="32.5" cy="22.75" r="1.2" fill="#a8d4ff" stroke="#120c10" stroke-width="0.5"/><circle cx="19.5" cy="22.75" r="1.2" fill="#a8d4ff" stroke="#120c10" stroke-width="0.5"/><circle cx="26" cy="11.5" r="1.2" fill="#a8d4ff" stroke="#120c10" stroke-width="0.5"/><path d="M33,37 C33,37.83 32.65,38.78 32.06,39.5 C31.48,40.22 30.51,40.91 29.5,41.33 C28.49,41.75 27.17,42 26,42 C24.83,42 23.51,41.75 22.5,41.33 C21.49,40.91 20.52,40.22 19.94,39.5 C19.35,38.78 19,37.83 19,37 C19,36.17 19.35,35.22 19.94,34.5 C20.52,33.78 21.49,33.09 22.5,32.67 C23.51,32.25 24.83,32 26,32 C27.17,32 28.49,32.25 29.5,32.67 C30.51,33.09 31.48,33.78 32.06,34.5 C32.65,35.22 33,36.17 33,37 Z" fill="#120c10" stroke="#120c10" stroke-width="2.8" stroke-linejoin="round"/><path d="M33,37 C33,37.83 32.65,38.78 32.06,39.5 C31.48,40.22 30.51,40.91 29.5,41.33 C28.49,41.75 27.17,42 26,42 C24.83,42 23.51,41.75 22.5,41.33 C21.49,40.91 20.52,40.22 19.94,39.5 C19.35,38.78 19,37.83 19,37 C19,36.17 19.35,35.22 19.94,34.5 C20.52,33.78 21.49,33.09 22.5,32.67 C23.51,32.25 24.83,32 26,32 C27.17,32 28.49,32.25 29.5,32.67 C30.51,33.09 31.48,33.78 32.06,34.5 C32.65,35.22 33,36.17 33,37 Z" fill="url(#rg12)"/><path d="M19.0,38 Q26.0,44 33.0,38 Q26.0,41 19.0,38 Z" fill="#120c10" stroke="#120c10" stroke-width="1.4" stroke-linejoin="round"/><path d="M19.0,38 Q26.0,44 33.0,38 Q26.0,41 19.0,38 Z" fill="#a8d4ff"/><circle cx="23" cy="37.5" r="4.58" fill="url(#rg13)"/><circle cx="23" cy="37.5" r="1.43" fill="#7fe0ff" stroke="#120c10" stroke-width="0.5"/><circle cx="22.57" cy="37.07" r="0.5" fill="#ffffff" opacity="0.9"/><circle cx="29" cy="37.5" r="4.58" fill="url(#rg14)"/><circle cx="29" cy="37.5" r="1.43" fill="#7fe0ff" stroke="#120c10" stroke-width="0.5"/><circle cx="28.57" cy="37.07" r="0.5" fill="#ffffff" opacity="0.9"/></g></g>
</svg>
