<svg xmlns="http://www.w3.org/2000/svg" width="240" height="80" viewBox="0 0 120 40">
<defs><radialGradient id="rg1" gradientUnits="objectBoundingBox" cx="0.5" cy="0.5" r="0.5"><stop offset="0" stop-color="#000000" stop-opacity="0.5"/><stop offset="0.55" stop-color="#000000" stop-opacity="0.3"/><stop offset="1" stop-color="#000000" stop-opacity="0"/></radialGradient><linearGradient id="lg2" gradientUnits="objectBoundingBox" x1="0" y1="0" x2="0" y2="1"><stop offset="0" stop-color="#cbb482" stop-opacity="1"/><stop offset="1" stop-color="#a88f62" stop-opacity="1"/></linearGradient><linearGradient id="lg3" gradientUnits="objectBoundingBox" x1="0" y1="0" x2="0" y2="1"><stop offset="0" stop-color="#cbb482" stop-opacity="1"/><stop offset="1" stop-color="#a88f62" stop-opacity="1"/></linearGradient><linearGradient id="lg4" gradientUnits="objectBoundingBox" x1="0" y1="0" x2="0" y2="1"><stop offset="0" stop-color="#cbb482" stop-opacity="1"/><stop offset="1" stop-color="#a88f62" stop-opacity="1"/></linearGradient><linearGradient id="lg5" gradientUnits="objectBoundingBox" x1="0" y1="0" x2="0" y2="1"><stop offset="0" stop-color="#cbb482" stop-opacity="1"/><stop offset="1" stop-color="#a88f62" stop-opacity="1"/></linearGradient><linearGradient id="lg6" gradientUnits="objectBoundingBox" x1="0" y1="0" x2="0" y2="1"><stop offset="0" stop-color="#cbb482" stop-opacity="1"/><stop offset="1" stop-color="#a88f62" stop-opacity="1"/></linearGradient><linearGradient id="lg7" gradientUnits="objectBoundingBox" x1="0" y1="0" x2="0" y2="1"><stop offset="0" stop-color="#cbb482" stop-opacity="1"/><stop offset="1" stop-color="#a88f62" stop-opacity="1"/></linearGradient><linearGradient id="lg8" gradientUnits="objectBoundingBox" x1="0" y1="0" x2="0" y2="1"><stop offset="0" stop-color="#cbb482" stop-opacity="1"/><stop offset="1" stop-color="#a88f62" stop-opacity="1"/></linearGradient><linearGradient id="lg9" gradientUnits="objectBoundingBox" x1="0" y1="0" x2="0" y2="1"><stop offset="0" stop-color="#cbb482" stop-opacity="1"/><stop offset="1" stop-color="#a88f62" stop-opacity="1"/></linearGradient><linearGradient id="lg10" gradientUnits="objectBoundingBox" x1="0" y1="0" x2="0" y2="1"><stop offset="0" stop-color="#cbb482" stop-opacity="1"/><stop offset="1" stop-color="#a88f62" stop-opacity="1"/></linearGradient><linearGradient id="lg11" gradientUnits="objectBoundingBox" x1="0" y1="0" x2="0" y2="1"><stop offset="0" stop-color="#cbb482" stop-opacity="1"/><stop offset="1" stop-color="#a88f62" stop-opacity="1"/></linearGradient><linearGradient id="lg12" gradientUnits="objectBoundingBox" x1="0" y1="0" x2="0" y2="1"><stop offset="0" stop-color="#cbb482" stop-opacity="1"/><stop offset="1" stop-color="#a88f62" stop-opacity="1"/></linearGradient><linearGradient id="lg13" gradientUnits="objectBoundingBox" x1="0" y1="0" x2="0" y2="1"><stop offset="0" stop-color="#cbb482" stop-opacity="1"/><stop offset="1" stop-color="#a88f62" stop-opacity="1"/></linearGradient><linearGradient id="lg14" gradientUnits="objectBoundingBox" x1="0" y1="0" x2="0" y2="1"><stop offset="0" stop-color="#cbb482" stop-opacity="1"/><stop offset="1" stop-color="#a88f62" stop-opacity="1"/></linearGradient><linearGradient id="lg15" gradientUnits="objectBoundingBox" x1="0" y1="0" x2="0" y2="1"><stop offset="0" stop-color="#cbb482" stop-opacity="1"/><stop offset="1" stop-color="#a88f62" stop-opacity="1"/></linearGradient><linearGradient id="lg16" gradientUnits="objectBoundingBox" x1="0" y1="0" x2="0" y2="1"><stop offset="0" stop-color="#cbb482" stop-opacity="1"/><stop offset="1" stop-color="#a88f62" stop-opacity="1"/></linearGradient><linearGradient id="lg17" gradientUnits="objectBoundingBox" x1="0" y1="0" x2="0" y2="1"><stop offset="0" stop-color="#cbb482" stop-opacity="1"/><stop offset="1" stop-color="#a88f62" stop-opacity="1"/></linearGradient><linearGradient id="lg18" gradientUnits="objectBoundingBox" x1="0" y1="0" x2="0" y2="1"><stop offset="0" stop-color="#cbb482" stop-opacity="1"/><stop offset="1" stop-color="#a88f62" stop-opacity="1"/></linearGradient></defs>
<ellipse cx="62" cy="24" rx="58" ry="13" fill="url(#rg1)"/>
<rect x="1.75" y="12.4" width="12.5" height="7.2" rx="3.24" fill="url(#lg2)" stroke="#120c10" stroke-width="0.9"/>
<line x1="4.25" y1="14.92" x2="11.75" y2="14.92" stroke="#7a6544" stroke-width="0.6" opacity="0.7"/>
<rect x="14.25" y="12.4" width="12.5" height="7.2" rx="3.24" fill="url(#lg3)" stroke="#120c10" stroke-width="0.9"/>
<line x1="16.75" y1="14.92" x2="24.25" y2="14.92" stroke="#7a6544" stroke-width="0.6" opacity="0.7"/>
<rect x="26.75" y="12.4" width="12.5" height="7.2" rx="3.24" fill="url(#lg4)" stroke="#120c10" stroke-width="0.9"/>
<line x1="29.25" y1="14.92" x2="36.75" y2="14.92" stroke="#7a6544" stroke-width="0.6" opacity="0.7"/>
<rect x="39.25" y="12.4" width="12.5" height="7.2" rx="3.24" fill="url(#lg5)" stroke="#120c10" stroke-width="0.9"/>
<line x1="41.75" y1="14.92" x2="49.25" y2="14.92" stroke="#7a6544" stroke-width="0.6" opacity="0.7"/>
<rect x="51.75" y="12.4" width="12.5" height="7.2" rx="3.24" fill="url(#lg6)" stroke="#120c10" stroke-width="0.9"/>
<line x1="54.25" y1="14.92" x2="61.75" y2="14.92" stroke="#7a6544" stroke-width="0.6" opacity="0.7"/>
<rect x="64.25" y="12.4" width="12.5" height="7.2" rx="3.24" fill="url(#lg7)" stroke="#120c10" stroke-width="0.9"/>
<line x1="66.75" y1="14.92" x2="74.25" y2="14.92" stroke="#7a6544" stroke-width="0.6" opacity="0.7"/>
<rect x="76.75" y="12.4" width="12.5" height="7.2" rx="3.24" fill="url(#lg8)" stroke="#120c10" stroke-width="0.9"/>
<line x1="79.25" y1="14.92" x2="86.75" y2="14.92" stroke="#7a6544" stroke-width="0.6" opacity="0.7"/>
<rect x="89.25" y="12.4" width="12.5" height="7.2" rx="3.24" fill="url(#lg9)" stroke="#120c10" stroke-width="0.9"/>
<line x1="91.75" y1="14.92" x2="99.25" y2="14.92" stroke="#7a6544" stroke-width="0.6" opacity="0.7"/>
<rect x="101.75" y="12.4" width="12.5" height="7.2" rx="3.24" fill="url(#lg10)" stroke="#120c10" stroke-width="0.9"/>
<line x1="104.25" y1="14.92" x2="111.75" y2="14.92" stroke="#7a6544" stroke-width="0.6" opacity="0.7"/>
<rect x="8" y="20.4" width="13.5" height="7.2" rx="3.24" fill="url(#lg11)" stroke="#120c10" stroke-width="0.9"/>
<line x1="10.7" y1="22.92" x2="18.8" y2="22.92" stroke="#7a6544" stroke-width="0.6" opacity="0.7"/>
<rect x="21.5" y="20.4" width="13.5" height="7.2" rx="3.24" fill="url(#lg12)" stroke="#120c10" stroke-width="0.9"/>
<line x1="24.2" y1="22.92" x2="32.3" y2="22.92" stroke="#7a6544" stroke-width="0.6" opacity="0.7"/>
<rect x="35" y="20.4" width="13.5" height="7.2" rx="3.24" fill="url(#lg13)" stroke="#120c10" stroke-width="0.9"/>
<line x1="37.7" y1="22.92" x2="45.8" y2="22.92" stroke="#7a6544" stroke-width="0.6" opacity="0.7"/>
<rect x="48.5" y="20.4" width="13.5" height="7.2" rx="3.24" fill="url(#lg14)" stroke="#120c10" stroke-width="0.9"/>
<line x1="51.2" y1="22.92" x2="59.3" y2="22.92" stroke="#7a6544" stroke-width="0.6" opacity="0.7"/>
<rect x="62" y="20.4" width="13.5" height="7.2" rx="3.24" fill="url(#lg15)" stroke="#120c10" stroke-width="0.9"/>
<line x1="64.7" y1="22.92" x2="72.8" y2="22.92" stroke="#7a6544" stroke-width="0.6" opacity="0.7"/>
<rect x="75.5" y="20.4" width="13.5" height="7.2" rx="3.24" fill="url(#lg16)" stroke="#120c10" stroke-width="0.9"/>
<line x1="78.2" y1="22.92" x2="86.3" y2="22.92" stroke="#7a6544" stroke-width="0.6" opacity="0.7"/>
<rect x="89" y="20.4" width="13.5" height="7.2" rx="3.24" fill="url(#lg17)" stroke="#120c10" stroke-width="0.9"/>
<line x1="91.7" y1="22.92" x2="99.8" y2="22.92" stroke="#7a6544" stroke-width="0.6" opacity="0.7"/>
<rect x="102.5" y="20.4" width="13.5" height="7.2" rx="3.24" fill="url(#lg18)" stroke="#120c10" stroke-width="0.9"/>
<line x1="105.2" y1="22.92" x2="113.3" y2="22.92" stroke="#7a6544" stroke-width="0.6" opacity="0.7"/>
<rect x="4" y="20" width="112" height="3" fill="#e8b030" opacity="0.55"/>
</svg>
