<svg xmlns="http://www.w3.org/2000/svg" width="192" height="192" viewBox="0 0 48 48">
<defs><radialGradient id="rg1" gradientUnits="objectBoundingBox" cx="0.5" cy="0.5" r="0.5"><stop offset="0" stop-color="#ff5a1f" stop-opacity="0.55"/><stop offset="0.7" stop-color="#15181d" stop-opacity="1"/><stop offset="1" stop-color="#0d0f12" stop-opacity="1"/></radialGradient><linearGradient id="lg2" gradientUnits="objectBoundingBox" x1="0" y1="0" x2="0" y2="1"><stop offset="0" stop-color="#ffe07a" stop-opacity="1"/><stop offset="0.6" stop-color="#ff9a2e" stop-opacity="1"/><stop offset="1" stop-color="#e2461a" stop-opacity="1"/></linearGradient><linearGradient id="lg3" gradientUnits="objectBoundingBox" x1="0" y1="0" x2="0" y2="1"><stop offset="0" stop-color="#ffe07a" stop-opacity="1"/><stop offset="0.6" stop-color="#ff9a2e" stop-opacity="1"/><stop offset="1" stop-color="#e2461a" stop-opacity="1"/></linearGradient><linearGradient id="lg4" gradientUnits="objectBoundingBox" x1="0" y1="0" x2="0" y2="1"><stop offset="0" stop-color="#ffe07a" stop-opacity="1"/><stop offset="0.6" stop-color="#ff9a2e" stop-opacity="1"/><stop offset="1" stop-color="#e2461a" stop-opacity="1"/></linearGradient></defs>
<circle cx="24" cy="24" r="22.5" fill="url(#rg1)" stroke="#ff8a2e" stroke-width="3"/>
<rect x="8" y="33" width="32" height="5" rx="2.5" fill="#ff5a1f" stroke="#4a1204" stroke-width="1"/>
<path d="M15,21 Q21,27.5 19,34 L11,34 Q9,27.5 15,21 Z" fill="url(#lg2)" stroke="#4a1204" stroke-width="0.9"/>
<path d="M24,15 Q30,24.5 28,34 L20,34 Q18,24.5 24,15 Z" fill="url(#lg3)" stroke="#4a1204" stroke-width="0.9"/>
<path d="M33,21 Q39,27.5 37,34 L29,34 Q27,27.5 33,21 Z" fill="url(#lg4)" stroke="#4a1204" stroke-width="0.9"/>
</svg>
